<svg width="800" height="50" viewBox="0 0 800 50" fill="none" xmlns="http://www.w3.org/2000/svg">
<g clip-path="url(#clip0_49_156)">
<rect width="800" height="50" fill="#0F0F0F"/>
<rect width="100" height="50" fill="#EDA69E"/>
<rect width="100" height="50" transform="translate(100)" fill="#D4B383"/>
<rect width="100" height="50" transform="translate(200)" fill="#AAC088"/>
<path d="M221.32 34V20.25H223.87V22.1H224.395L223.97 22.55C223.97 21.7833 224.186 21.1667 224.62 20.7C225.053 20.2333 225.611 20 226.295 20C227.028 20 227.595 20.3 227.995 20.9C228.411 21.5 228.62 22.3083 228.62 23.325L228.07 22.1H228.92L228.595 22.55C228.595 21.7833 228.811 21.1667 229.245 20.7C229.678 20.2333 230.253 20 230.97 20C231.82 20 232.495 20.3167 232.995 20.95C233.495 21.5833 233.745 22.4417 233.745 23.525V34H230.995V23.65C230.995 23.2 230.895 22.85 230.695 22.6C230.495 22.3333 230.203 22.2 229.82 22.2C229.453 22.2 229.161 22.325 228.945 22.575C228.745 22.825 228.645 23.1833 228.645 23.65V34H226.395V23.65C226.395 23.1833 226.295 22.825 226.095 22.575C225.895 22.325 225.603 22.2 225.22 22.2C224.836 22.2 224.545 22.325 224.345 22.575C224.161 22.825 224.07 23.1833 224.07 23.65V34H221.32ZM240.985 34.25C239.568 34.25 238.451 33.875 237.635 33.125C236.818 32.375 236.41 31.3667 236.41 30.1C236.41 28.75 236.86 27.7083 237.76 26.975C238.66 26.2417 239.935 25.875 241.585 25.875H245.01V24.7C245.01 24.0333 244.793 23.5167 244.36 23.15C243.926 22.7667 243.335 22.575 242.585 22.575C241.901 22.575 241.335 22.725 240.885 23.025C240.435 23.325 240.168 23.7333 240.085 24.25H237.035C237.185 22.95 237.768 21.9167 238.785 21.15C239.801 20.3833 241.101 20 242.685 20C244.368 20 245.693 20.425 246.66 21.275C247.643 22.1083 248.135 23.2417 248.135 24.675V34H245.11V31.6H244.61L245.11 30.925C245.11 31.9417 244.735 32.75 243.985 33.35C243.235 33.95 242.235 34.25 240.985 34.25ZM242.01 31.9C242.893 31.9 243.61 31.675 244.16 31.225C244.726 30.775 245.01 30.1917 245.01 29.475V27.8H241.635C241.001 27.8 240.493 27.9833 240.11 28.35C239.726 28.7167 239.535 29.2 239.535 29.8C239.535 30.45 239.751 30.9667 240.185 31.35C240.635 31.7167 241.243 31.9 242.01 31.9ZM252 34V15.75H255.125V25.65H257.3L260.65 20.25H264.15L260 26.9L264.225 34H260.65L257.3 28.3H255.125V34H252ZM272.515 34.25C271.349 34.25 270.332 34.025 269.465 33.575C268.599 33.125 267.924 32.5 267.44 31.7C266.974 30.8833 266.74 29.9333 266.74 28.85V25.4C266.74 24.3167 266.974 23.375 267.44 22.575C267.924 21.7583 268.599 21.125 269.465 20.675C270.332 20.225 271.349 20 272.515 20C273.665 20 274.665 20.225 275.515 20.675C276.382 21.125 277.049 21.7583 277.515 22.575C277.999 23.375 278.24 24.3167 278.24 25.4V27.875H269.765V28.85C269.765 29.8167 269.999 30.55 270.465 31.05C270.932 31.5333 271.624 31.775 272.54 31.775C273.24 31.775 273.807 31.6583 274.24 31.425C274.674 31.175 274.949 30.8167 275.065 30.35H278.14C277.907 31.5333 277.274 32.4833 276.24 33.2C275.224 33.9 273.982 34.25 272.515 34.25ZM275.215 26.125V25.375C275.215 24.425 274.99 23.7 274.54 23.2C274.09 22.6833 273.415 22.425 272.515 22.425C271.615 22.425 270.932 22.6833 270.465 23.2C269.999 23.7167 269.765 24.45 269.765 25.4V25.925L275.44 25.875L275.215 26.125Z" fill="#F0F0F0"/>
<rect width="100" height="50" transform="translate(300)" fill="#7EC8A9"/>
<path d="M307.379 34V20.25H310.329V22.875H311.104L310.179 24.475C310.179 22.9917 310.513 21.875 311.179 21.125C311.846 20.375 312.829 20 314.129 20C315.613 20 316.779 20.4583 317.629 21.375C318.479 22.2917 318.904 23.5583 318.904 25.175V26.175H315.629V25.4C315.629 24.5167 315.396 23.8333 314.929 23.35C314.479 22.8667 313.854 22.625 313.054 22.625C312.238 22.625 311.604 22.8667 311.154 23.35C310.721 23.8333 310.504 24.5167 310.504 25.4V34H307.379ZM327.52 34.25C325.77 34.25 324.395 33.7667 323.395 32.8C322.395 31.8167 321.895 30.4833 321.895 28.8V20.25H325.02V28.775C325.02 29.6583 325.236 30.3417 325.67 30.825C326.103 31.2917 326.72 31.525 327.52 31.525C328.303 31.525 328.911 31.2917 329.345 30.825C329.795 30.3417 330.02 29.6583 330.02 28.775V20.25H333.145V28.8C333.145 30.4833 332.636 31.8167 331.62 32.8C330.603 33.7667 329.236 34.25 327.52 34.25ZM341.985 34.225C340.935 34.225 340.018 34.0583 339.235 33.725C338.451 33.3917 337.835 32.9333 337.385 32.35C336.951 31.75 336.718 31.05 336.685 30.25H339.81C339.843 30.6833 340.051 31.0333 340.435 31.3C340.835 31.5667 341.351 31.7 341.985 31.7H343.085C343.851 31.7 344.426 31.55 344.81 31.25C345.193 30.95 345.385 30.5417 345.385 30.025C345.385 29.5417 345.21 29.1667 344.86 28.9C344.526 28.6167 344.001 28.4333 343.285 28.35L341.585 28.1C340.018 27.8833 338.868 27.4667 338.135 26.85C337.401 26.2333 337.035 25.3083 337.035 24.075C337.035 22.7917 337.468 21.8 338.335 21.1C339.201 20.3833 340.476 20.025 342.16 20.025H343.11C344.643 20.025 345.868 20.3667 346.785 21.05C347.701 21.7333 348.193 22.65 348.26 23.8H345.135C345.085 23.4333 344.876 23.1333 344.51 22.9C344.16 22.6667 343.693 22.55 343.11 22.55H342.16C341.443 22.55 340.918 22.6833 340.585 22.95C340.268 23.2 340.11 23.575 340.11 24.075C340.11 24.5417 340.251 24.8917 340.535 25.125C340.818 25.3417 341.276 25.5 341.91 25.6L343.685 25.85C345.318 26.0833 346.518 26.525 347.285 27.175C348.068 27.8083 348.46 28.75 348.46 30C348.46 31.3333 348.001 32.375 347.085 33.125C346.185 33.8583 344.851 34.225 343.085 34.225H341.985ZM356.975 34.225C355.925 34.225 355.008 34.0583 354.225 33.725C353.442 33.3917 352.825 32.9333 352.375 32.35C351.942 31.75 351.708 31.05 351.675 30.25H354.8C354.833 30.6833 355.042 31.0333 355.425 31.3C355.825 31.5667 356.342 31.7 356.975 31.7H358.075C358.842 31.7 359.417 31.55 359.8 31.25C360.183 30.95 360.375 30.5417 360.375 30.025C360.375 29.5417 360.2 29.1667 359.85 28.9C359.517 28.6167 358.992 28.4333 358.275 28.35L356.575 28.1C355.008 27.8833 353.858 27.4667 353.125 26.85C352.392 26.2333 352.025 25.3083 352.025 24.075C352.025 22.7917 352.458 21.8 353.325 21.1C354.192 20.3833 355.467 20.025 357.15 20.025H358.1C359.633 20.025 360.858 20.3667 361.775 21.05C362.692 21.7333 363.183 22.65 363.25 23.8H360.125C360.075 23.4333 359.867 23.1333 359.5 22.9C359.15 22.6667 358.683 22.55 358.1 22.55H357.15C356.433 22.55 355.908 22.6833 355.575 22.95C355.258 23.2 355.1 23.575 355.1 24.075C355.1 24.5417 355.242 24.8917 355.525 25.125C355.808 25.3417 356.267 25.5 356.9 25.6L358.675 25.85C360.308 26.0833 361.508 26.525 362.275 27.175C363.058 27.8083 363.45 28.75 363.45 30C363.45 31.3333 362.992 32.375 362.075 33.125C361.175 33.8583 359.842 34.225 358.075 34.225H356.975ZM366.89 34V31.15H371.69V23.075H367.515V20.25H374.69V31.15H378.94V34H366.89ZM372.94 17.95C372.307 17.95 371.807 17.7917 371.44 17.475C371.074 17.1417 370.89 16.7 370.89 16.15C370.89 15.6 371.074 15.1667 371.44 14.85C371.807 14.5167 372.307 14.35 372.94 14.35C373.574 14.35 374.074 14.5167 374.44 14.85C374.807 15.1667 374.99 15.6 374.99 16.15C374.99 16.7 374.807 17.1417 374.44 17.475C374.074 17.7917 373.574 17.95 372.94 17.95ZM385.955 34.25C384.539 34.25 383.422 33.875 382.605 33.125C381.789 32.375 381.38 31.3667 381.38 30.1C381.38 28.75 381.83 27.7083 382.73 26.975C383.63 26.2417 384.905 25.875 386.555 25.875H389.98V24.7C389.98 24.0333 389.764 23.5167 389.33 23.15C388.897 22.7667 388.305 22.575 387.555 22.575C386.872 22.575 386.305 22.725 385.855 23.025C385.405 23.325 385.139 23.7333 385.055 24.25H382.005C382.155 22.95 382.739 21.9167 383.755 21.15C384.772 20.3833 386.072 20 387.655 20C389.339 20 390.664 20.425 391.63 21.275C392.614 22.1083 393.105 23.2417 393.105 24.675V34H390.08V31.6H389.58L390.08 30.925C390.08 31.9417 389.705 32.75 388.955 33.35C388.205 33.95 387.205 34.25 385.955 34.25ZM386.98 31.9C387.864 31.9 388.58 31.675 389.13 31.225C389.697 30.775 389.98 30.1917 389.98 29.475V27.8H386.605C385.972 27.8 385.464 27.9833 385.08 28.35C384.697 28.7167 384.505 29.2 384.505 29.8C384.505 30.45 384.722 30.9667 385.155 31.35C385.605 31.7167 386.214 31.9 386.98 31.9Z" fill="#F0F0F0"/>
<rect width="100" height="50" transform="translate(400)" fill="#6CC7D3"/>
<path d="M419.999 34.225C418.949 34.225 418.033 34.0583 417.249 33.725C416.466 33.3917 415.849 32.9333 415.399 32.35C414.966 31.75 414.733 31.05 414.699 30.25H417.824C417.858 30.6833 418.066 31.0333 418.449 31.3C418.849 31.5667 419.366 31.7 419.999 31.7H421.099C421.866 31.7 422.441 31.55 422.824 31.25C423.208 30.95 423.399 30.5417 423.399 30.025C423.399 29.5417 423.224 29.1667 422.874 28.9C422.541 28.6167 422.016 28.4333 421.299 28.35L419.599 28.1C418.033 27.8833 416.883 27.4667 416.149 26.85C415.416 26.2333 415.049 25.3083 415.049 24.075C415.049 22.7917 415.483 21.8 416.349 21.1C417.216 20.3833 418.491 20.025 420.174 20.025H421.124C422.658 20.025 423.883 20.3667 424.799 21.05C425.716 21.7333 426.208 22.65 426.274 23.8H423.149C423.099 23.4333 422.891 23.1333 422.524 22.9C422.174 22.6667 421.708 22.55 421.124 22.55H420.174C419.458 22.55 418.933 22.6833 418.599 22.95C418.283 23.2 418.124 23.575 418.124 24.075C418.124 24.5417 418.266 24.8917 418.549 25.125C418.833 25.3417 419.291 25.5 419.924 25.6L421.699 25.85C423.333 26.0833 424.533 26.525 425.299 27.175C426.083 27.8083 426.474 28.75 426.474 30C426.474 31.3333 426.016 32.375 425.099 33.125C424.199 33.8583 422.866 34.225 421.099 34.225H419.999ZM429.315 34V20.25H431.865V22.1H432.39L431.965 22.55C431.965 21.7833 432.181 21.1667 432.615 20.7C433.048 20.2333 433.606 20 434.29 20C435.023 20 435.59 20.3 435.99 20.9C436.406 21.5 436.615 22.3083 436.615 23.325L436.065 22.1H436.915L436.59 22.55C436.59 21.7833 436.806 21.1667 437.24 20.7C437.673 20.2333 438.248 20 438.965 20C439.815 20 440.49 20.3167 440.99 20.95C441.49 21.5833 441.74 22.4417 441.74 23.525V34H438.99V23.65C438.99 23.2 438.89 22.85 438.69 22.6C438.49 22.3333 438.198 22.2 437.815 22.2C437.448 22.2 437.156 22.325 436.94 22.575C436.74 22.825 436.64 23.1833 436.64 23.65V34H434.39V23.65C434.39 23.1833 434.29 22.825 434.09 22.575C433.89 22.325 433.598 22.2 433.215 22.2C432.831 22.2 432.54 22.325 432.34 22.575C432.156 22.825 432.065 23.1833 432.065 23.65V34H429.315ZM448.98 34.25C447.563 34.25 446.447 33.875 445.63 33.125C444.813 32.375 444.405 31.3667 444.405 30.1C444.405 28.75 444.855 27.7083 445.755 26.975C446.655 26.2417 447.93 25.875 449.58 25.875H453.005V24.7C453.005 24.0333 452.788 23.5167 452.355 23.15C451.922 22.7667 451.33 22.575 450.58 22.575C449.897 22.575 449.33 22.725 448.88 23.025C448.43 23.325 448.163 23.7333 448.08 24.25H445.03C445.18 22.95 445.763 21.9167 446.78 21.15C447.797 20.3833 449.097 20 450.68 20C452.363 20 453.688 20.425 454.655 21.275C455.638 22.1083 456.13 23.2417 456.13 24.675V34H453.105V31.6H452.605L453.105 30.925C453.105 31.9417 452.73 32.75 451.98 33.35C451.23 33.95 450.23 34.25 448.98 34.25ZM450.005 31.9C450.888 31.9 451.605 31.675 452.155 31.225C452.722 30.775 453.005 30.1917 453.005 29.475V27.8H449.63C448.997 27.8 448.488 27.9833 448.105 28.35C447.722 28.7167 447.53 29.2 447.53 29.8C447.53 30.45 447.747 30.9667 448.18 31.35C448.63 31.7167 449.238 31.9 450.005 31.9ZM467.595 34C466.695 34 465.903 33.8167 465.22 33.45C464.553 33.0833 464.028 32.5667 463.645 31.9C463.262 31.2167 463.07 30.4333 463.07 29.55V18.575H458.67V15.75H466.195V29.55C466.195 30.05 466.337 30.45 466.62 30.75C466.92 31.0333 467.32 31.175 467.82 31.175H471.97V34H467.595ZM482.585 34C481.685 34 480.894 33.8167 480.21 33.45C479.544 33.0833 479.019 32.5667 478.635 31.9C478.252 31.2167 478.06 30.4333 478.06 29.55V18.575H473.66V15.75H481.185V29.55C481.185 30.05 481.327 30.45 481.61 30.75C481.91 31.0333 482.31 31.175 482.81 31.175H486.96V34H482.585Z" fill="#F0F0F0"/>
<rect width="100" height="50" transform="translate(500)" fill="#8DBFEE"/>
<path d="M518.999 34.25C517.583 34.25 516.466 33.875 515.649 33.125C514.833 32.375 514.424 31.3667 514.424 30.1C514.424 28.75 514.874 27.7083 515.774 26.975C516.674 26.2417 517.949 25.875 519.599 25.875H523.024V24.7C523.024 24.0333 522.808 23.5167 522.374 23.15C521.941 22.7667 521.349 22.575 520.599 22.575C519.916 22.575 519.349 22.725 518.899 23.025C518.449 23.325 518.183 23.7333 518.099 24.25H515.049C515.199 22.95 515.783 21.9167 516.799 21.15C517.816 20.3833 519.116 20 520.699 20C522.383 20 523.708 20.425 524.674 21.275C525.658 22.1083 526.149 23.2417 526.149 24.675V34H523.124V31.6H522.624L523.124 30.925C523.124 31.9417 522.749 32.75 521.999 33.35C521.249 33.95 520.249 34.25 518.999 34.25ZM520.024 31.9C520.908 31.9 521.624 31.675 522.174 31.225C522.741 30.775 523.024 30.1917 523.024 29.475V27.8H519.649C519.016 27.8 518.508 27.9833 518.124 28.35C517.741 28.7167 517.549 29.2 517.549 29.8C517.549 30.45 517.766 30.9667 518.199 31.35C518.649 31.7167 519.258 31.9 520.024 31.9ZM531.815 38.5V35.9H535.89C536.59 35.9 537.115 35.725 537.465 35.375C537.815 35.0417 537.99 34.5583 537.99 33.925V32.9L538.04 30.325H537.365L538.04 29.65C538.04 30.7667 537.706 31.6417 537.04 32.275C536.39 32.8917 535.506 33.2 534.39 33.2C532.99 33.2 531.873 32.725 531.04 31.775C530.223 30.825 529.815 29.5417 529.815 27.925V25.25C529.815 23.65 530.223 22.375 531.04 21.425C531.873 20.475 532.99 20 534.39 20C535.506 20 536.39 20.3167 537.04 20.95C537.706 21.5667 538.04 22.4333 538.04 23.55L537.365 22.875H538.04L537.965 20.25H541.09V34C541.09 35.3833 540.631 36.475 539.715 37.275C538.798 38.0917 537.54 38.5 535.94 38.5H531.815ZM535.44 30.5C536.24 30.5 536.856 30.2667 537.29 29.8C537.74 29.3167 537.965 28.65 537.965 27.8V25.4C537.965 24.55 537.74 23.8917 537.29 23.425C536.856 22.9417 536.24 22.7 535.44 22.7C534.64 22.7 534.023 22.9333 533.59 23.4C533.156 23.8667 532.94 24.5333 532.94 25.4V27.8C532.94 28.6667 533.156 29.3333 533.59 29.8C534.023 30.2667 534.64 30.5 535.44 30.5ZM548.98 34.25C547.563 34.25 546.447 33.875 545.63 33.125C544.813 32.375 544.405 31.3667 544.405 30.1C544.405 28.75 544.855 27.7083 545.755 26.975C546.655 26.2417 547.93 25.875 549.58 25.875H553.005V24.7C553.005 24.0333 552.788 23.5167 552.355 23.15C551.922 22.7667 551.33 22.575 550.58 22.575C549.897 22.575 549.33 22.725 548.88 23.025C548.43 23.325 548.163 23.7333 548.08 24.25H545.03C545.18 22.95 545.763 21.9167 546.78 21.15C547.797 20.3833 549.097 20 550.68 20C552.363 20 553.688 20.425 554.655 21.275C555.638 22.1083 556.13 23.2417 556.13 24.675V34H553.105V31.6H552.605L553.105 30.925C553.105 31.9417 552.73 32.75 551.98 33.35C551.23 33.95 550.23 34.25 548.98 34.25ZM550.005 31.9C550.888 31.9 551.605 31.675 552.155 31.225C552.722 30.775 553.005 30.1917 553.005 29.475V27.8H549.63C548.997 27.8 548.488 27.9833 548.105 28.35C547.722 28.7167 547.53 29.2 547.53 29.8C547.53 30.45 547.747 30.9667 548.18 31.35C548.63 31.7167 549.238 31.9 550.005 31.9ZM559.895 34V31.15H564.695V23.075H560.52V20.25H567.695V31.15H571.945V34H559.895ZM565.945 17.95C565.312 17.95 564.812 17.7917 564.445 17.475C564.078 17.1417 563.895 16.7 563.895 16.15C563.895 15.6 564.078 15.1667 564.445 14.85C564.812 14.5167 565.312 14.35 565.945 14.35C566.578 14.35 567.078 14.5167 567.445 14.85C567.812 15.1667 567.995 15.6 567.995 16.15C567.995 16.7 567.812 17.1417 567.445 17.475C567.078 17.7917 566.578 17.95 565.945 17.95ZM574.91 34V20.25H577.96V22.875H578.81L577.96 23.6C577.96 22.4667 578.285 21.5833 578.935 20.95C579.602 20.3167 580.51 20 581.66 20C583.01 20 584.085 20.45 584.885 21.35C585.702 22.25 586.11 23.4583 586.11 24.975V34H582.985V25.3C582.985 24.4667 582.769 23.825 582.335 23.375C581.902 22.925 581.294 22.7 580.51 22.7C579.744 22.7 579.135 22.9333 578.685 23.4C578.252 23.8667 578.035 24.5333 578.035 25.4V34H574.91Z" fill="#F0F0F0"/>
<rect width="100" height="50" transform="translate(600)" fill="#C3B0E9"/>
<rect width="100" height="50" transform="translate(700)" fill="#DEA8D5"/>
</g>
<defs>
<clipPath id="clip0_49_156">
<rect width="800" height="50" fill="white"/>
</clipPath>
</defs>
</svg>
