<svg width="800" height="100" viewBox="0 0 800 100" fill="none" xmlns="http://www.w3.org/2000/svg">
<g clip-path="url(#clip0_41_13)">
<rect width="800" height="100" fill="#191919"/>
<rect width="100" height="100" fill="#0F0F0F"/>
<path d="M29.8437 47L30.2137 45H29.3637V44.35H30.3337L30.6937 42.35H29.7137V41.7H30.8137L31.1837 39.7H31.8837L31.5137 41.7H33.1137L33.4837 39.7H34.1837L33.8137 41.7H34.6637V42.35H33.6937L33.3337 44.35H34.3137V45H33.2137L32.8437 47H32.1437L32.5137 45H30.9137L30.5437 47H29.8437ZM31.0337 44.35H32.6337L32.9937 42.35H31.3937L31.0337 44.35ZM38.0098 47.1C37.5631 47.1 37.1731 47.0133 36.8398 46.84C36.5131 46.66 36.2598 46.41 36.0798 46.09C35.8998 45.7633 35.8098 45.3833 35.8098 44.95V41.75C35.8098 41.31 35.8998 40.93 36.0798 40.61C36.2598 40.29 36.5131 40.0433 36.8398 39.87C37.1731 39.69 37.5631 39.6 38.0098 39.6C38.4631 39.6 38.8531 39.69 39.1798 39.87C39.5064 40.0433 39.7598 40.29 39.9398 40.61C40.1198 40.93 40.2098 41.31 40.2098 41.75V44.95C40.2098 45.3833 40.1198 45.7633 39.9398 46.09C39.7598 46.41 39.5031 46.66 39.1698 46.84C38.8431 47.0133 38.4564 47.1 38.0098 47.1ZM38.0098 46.33C38.4098 46.33 38.7298 46.2033 38.9698 45.95C39.2164 45.69 39.3398 45.3567 39.3398 44.95V41.75C39.3398 41.3433 39.2164 41.0133 38.9698 40.76C38.7298 40.5 38.4098 40.37 38.0098 40.37C37.6098 40.37 37.2864 40.5 37.0398 40.76C36.7998 41.0133 36.6798 41.3433 36.6798 41.75V44.95C36.6798 45.3567 36.7998 45.69 37.0398 45.95C37.2864 46.2033 37.6098 46.33 38.0098 46.33ZM38.0098 43.94C37.8298 43.94 37.6831 43.8833 37.5698 43.77C37.4631 43.6567 37.4098 43.5067 37.4098 43.32C37.4098 43.14 37.4631 42.9967 37.5698 42.89C37.6831 42.7767 37.8298 42.72 38.0098 42.72C38.1898 42.72 38.3331 42.7767 38.4398 42.89C38.5531 42.9967 38.6098 43.14 38.6098 43.32C38.6098 43.5067 38.5531 43.6567 38.4398 43.77C38.3331 43.8833 38.1898 43.94 38.0098 43.94ZM43.2059 47V42.87H41.6059V42.05H43.2059V41.1C43.2059 40.6667 43.3425 40.3267 43.6159 40.08C43.8892 39.8267 44.2659 39.7 44.7459 39.7H46.3559V40.52H44.7459C44.5392 40.52 44.3792 40.57 44.2659 40.67C44.1592 40.7633 44.1059 40.9067 44.1059 41.1V42.05H46.3559V42.87H44.1059V47H43.2059ZM50.002 47.1C49.5553 47.1 49.1653 47.0133 48.832 46.84C48.5053 46.66 48.252 46.41 48.072 46.09C47.892 45.7633 47.802 45.3833 47.802 44.95V41.75C47.802 41.31 47.892 40.93 48.072 40.61C48.252 40.29 48.5053 40.0433 48.832 39.87C49.1653 39.69 49.5553 39.6 50.002 39.6C50.4553 39.6 50.8453 39.69 51.172 39.87C51.4986 40.0433 51.752 40.29 51.932 40.61C52.112 40.93 52.202 41.31 52.202 41.75V44.95C52.202 45.3833 52.112 45.7633 51.932 46.09C51.752 46.41 51.4953 46.66 51.162 46.84C50.8353 47.0133 50.4486 47.1 50.002 47.1ZM50.002 46.33C50.402 46.33 50.722 46.2033 50.962 45.95C51.2086 45.69 51.332 45.3567 51.332 44.95V41.75C51.332 41.3433 51.2086 41.0133 50.962 40.76C50.722 40.5 50.402 40.37 50.002 40.37C49.602 40.37 49.2786 40.5 49.032 40.76C48.792 41.0133 48.672 41.3433 48.672 41.75V44.95C48.672 45.3567 48.792 45.69 49.032 45.95C49.2786 46.2033 49.602 46.33 50.002 46.33ZM50.002 43.94C49.822 43.94 49.6753 43.8833 49.562 43.77C49.4553 43.6567 49.402 43.5067 49.402 43.32C49.402 43.14 49.4553 42.9967 49.562 42.89C49.6753 42.7767 49.822 42.72 50.002 42.72C50.182 42.72 50.3253 42.7767 50.432 42.89C50.5453 42.9967 50.602 43.14 50.602 43.32C50.602 43.5067 50.5453 43.6567 50.432 43.77C50.3253 43.8833 50.182 43.94 50.002 43.94ZM55.198 47V42.87H53.598V42.05H55.198V41.1C55.198 40.6667 55.3347 40.3267 55.608 40.08C55.8814 39.8267 56.258 39.7 56.738 39.7H58.348V40.52H56.738C56.5314 40.52 56.3714 40.57 56.258 40.67C56.1514 40.7633 56.098 40.9067 56.098 41.1V42.05H58.348V42.87H56.098V47H55.198ZM61.9941 47.1C61.5475 47.1 61.1575 47.0133 60.8241 46.84C60.4975 46.66 60.2441 46.41 60.0641 46.09C59.8841 45.7633 59.7941 45.3833 59.7941 44.95V41.75C59.7941 41.31 59.8841 40.93 60.0641 40.61C60.2441 40.29 60.4975 40.0433 60.8241 39.87C61.1575 39.69 61.5475 39.6 61.9941 39.6C62.4475 39.6 62.8375 39.69 63.1641 39.87C63.4908 40.0433 63.7441 40.29 63.9241 40.61C64.1041 40.93 64.1941 41.31 64.1941 41.75V44.95C64.1941 45.3833 64.1041 45.7633 63.9241 46.09C63.7441 46.41 63.4875 46.66 63.1541 46.84C62.8275 47.0133 62.4408 47.1 61.9941 47.1ZM61.9941 46.33C62.3941 46.33 62.7141 46.2033 62.9541 45.95C63.2008 45.69 63.3241 45.3567 63.3241 44.95V41.75C63.3241 41.3433 63.2008 41.0133 62.9541 40.76C62.7141 40.5 62.3941 40.37 61.9941 40.37C61.5941 40.37 61.2708 40.5 61.0241 40.76C60.7841 41.0133 60.6641 41.3433 60.6641 41.75V44.95C60.6641 45.3567 60.7841 45.69 61.0241 45.95C61.2708 46.2033 61.5941 46.33 61.9941 46.33ZM61.9941 43.94C61.8141 43.94 61.6675 43.8833 61.5541 43.77C61.4475 43.6567 61.3941 43.5067 61.3941 43.32C61.3941 43.14 61.4475 42.9967 61.5541 42.89C61.6675 42.7767 61.8141 42.72 61.9941 42.72C62.1741 42.72 62.3175 42.7767 62.4241 42.89C62.5375 42.9967 62.5941 43.14 62.5941 43.32C62.5941 43.5067 62.5375 43.6567 62.4241 43.77C62.3175 43.8833 62.1741 43.94 61.9941 43.94ZM67.1902 47V42.87H65.5902V42.05H67.1902V41.1C67.1902 40.6667 67.3269 40.3267 67.6002 40.08C67.8736 39.8267 68.2502 39.7 68.7302 39.7H70.3402V40.52H68.7302C68.5236 40.52 68.3636 40.57 68.2502 40.67C68.1436 40.7633 68.0902 40.9067 68.0902 41.1V42.05H70.3402V42.87H68.0902V47H67.1902ZM20.9395 60V52.7H21.8395V54.5V55.55H22.0295L21.8395 55.76C21.8395 55.3267 21.9695 54.9933 22.2295 54.76C22.4895 54.52 22.8495 54.4 23.3095 54.4C23.8629 54.4 24.3029 54.57 24.6295 54.91C24.9562 55.25 25.1195 55.7133 25.1195 56.3V60H24.2195V56.4C24.2195 56.0067 24.1129 55.7033 23.8995 55.49C23.6929 55.27 23.4095 55.16 23.0495 55.16C22.6762 55.16 22.3795 55.2767 22.1595 55.51C21.9462 55.7433 21.8395 56.0733 21.8395 56.5V60H20.9395ZM28.8456 60.08C28.4723 60.08 28.1456 60.0233 27.8656 59.91C27.5923 59.79 27.3723 59.6233 27.2056 59.41C27.0456 59.1967 26.949 58.9433 26.9156 58.65H27.8156C27.8556 58.8433 27.9623 58.9967 28.1356 59.11C28.3156 59.2233 28.5523 59.28 28.8456 59.28H29.2656C29.619 59.28 29.8823 59.21 30.0556 59.07C30.229 58.9233 30.3156 58.73 30.3156 58.49C30.3156 58.2567 30.2356 58.0733 30.0756 57.94C29.9223 57.8 29.6923 57.7067 29.3856 57.66L28.6456 57.54C28.1056 57.4467 27.7023 57.28 27.4356 57.04C27.1756 56.7933 27.0456 56.4367 27.0456 55.97C27.0456 55.4767 27.2023 55.0967 27.5156 54.83C27.829 54.5567 28.299 54.42 28.9256 54.42H29.3056C29.8323 54.42 30.2556 54.5433 30.5756 54.79C30.8956 55.0367 31.089 55.37 31.1556 55.79H30.2556C30.2156 55.6167 30.1156 55.48 29.9556 55.38C29.7956 55.2733 29.579 55.22 29.3056 55.22H28.9256C28.5856 55.22 28.3356 55.2833 28.1756 55.41C28.0223 55.5367 27.9456 55.7267 27.9456 55.98C27.9456 56.2067 28.0123 56.3733 28.1456 56.48C28.279 56.5867 28.489 56.6633 28.7756 56.71L29.5156 56.83C30.109 56.9233 30.539 57.0967 30.8056 57.35C31.079 57.6033 31.2156 57.97 31.2156 58.45C31.2156 58.9567 31.0523 59.3567 30.7256 59.65C30.4056 59.9367 29.919 60.08 29.2656 60.08H28.8456ZM35.3317 60.1C34.8784 60.1 34.5151 59.98 34.2417 59.74C33.9684 59.4933 33.8317 59.16 33.8317 58.74L34.0117 58.95H33.8317V60H32.9317V52.7H33.8317V54.3L33.8117 55.55H34.0117L33.8317 55.76C33.8317 55.3467 33.9684 55.0167 34.2417 54.77C34.5217 54.5233 34.8851 54.4 35.3317 54.4C35.8851 54.4 36.3284 54.5833 36.6617 54.95C36.9951 55.3167 37.1617 55.8167 37.1617 56.45V58.06C37.1617 58.6867 36.9951 59.1833 36.6617 59.55C36.3284 59.9167 35.8851 60.1 35.3317 60.1ZM35.0317 59.32C35.4117 59.32 35.7117 59.2067 35.9317 58.98C36.1517 58.7533 36.2617 58.4267 36.2617 58V56.5C36.2617 56.0733 36.1517 55.7467 35.9317 55.52C35.7117 55.2933 35.4117 55.18 35.0317 55.18C34.6651 55.18 34.3717 55.2967 34.1517 55.53C33.9384 55.7633 33.8317 56.0867 33.8317 56.5V58C33.8317 58.4133 33.9384 58.7367 34.1517 58.97C34.3717 59.2033 34.6651 59.32 35.0317 59.32ZM42.8578 61.2C41.9111 60.9667 41.1745 60.5067 40.6478 59.82C40.1211 59.1333 39.8578 58.2933 39.8578 57.3V55.5C39.8578 54.8467 39.9778 54.2567 40.2178 53.73C40.4645 53.1967 40.8111 52.7467 41.2578 52.38C41.7111 52.0133 42.2445 51.7533 42.8578 51.6V52.45C42.4311 52.55 42.0611 52.7433 41.7478 53.03C41.4345 53.31 41.1911 53.66 41.0178 54.08C40.8445 54.5 40.7578 54.9733 40.7578 55.5V57.3C40.7578 57.8133 40.8411 58.28 41.0078 58.7C41.1811 59.12 41.4245 59.47 41.7378 59.75C42.0578 60.0233 42.4311 60.21 42.8578 60.31V61.2ZM47.0039 60.1C46.5572 60.1 46.1672 60.0133 45.8339 59.84C45.5072 59.66 45.2539 59.41 45.0739 59.09C44.8939 58.7633 44.8039 58.3833 44.8039 57.95V54.75C44.8039 54.31 44.8939 53.93 45.0739 53.61C45.2539 53.29 45.5072 53.0433 45.8339 52.87C46.1672 52.69 46.5572 52.6 47.0039 52.6C47.4572 52.6 47.8472 52.69 48.1739 52.87C48.5006 53.0433 48.7539 53.29 48.9339 53.61C49.1139 53.93 49.2039 54.31 49.2039 54.75V57.95C49.2039 58.3833 49.1139 58.7633 48.9339 59.09C48.7539 59.41 48.4972 59.66 48.1639 59.84C47.8372 60.0133 47.4506 60.1 47.0039 60.1ZM47.0039 59.33C47.4039 59.33 47.7239 59.2033 47.9639 58.95C48.2106 58.69 48.3339 58.3567 48.3339 57.95V54.75C48.3339 54.3433 48.2106 54.0133 47.9639 53.76C47.7239 53.5 47.4039 53.37 47.0039 53.37C46.6039 53.37 46.2806 53.5 46.0339 53.76C45.7939 54.0133 45.6739 54.3433 45.6739 54.75V57.95C45.6739 58.3567 45.7939 58.69 46.0339 58.95C46.2806 59.2033 46.6039 59.33 47.0039 59.33ZM47.0039 56.94C46.8239 56.94 46.6772 56.8833 46.5639 56.77C46.4572 56.6567 46.4039 56.5067 46.4039 56.32C46.4039 56.14 46.4572 55.9967 46.5639 55.89C46.6772 55.7767 46.8239 55.72 47.0039 55.72C47.1839 55.72 47.3272 55.7767 47.4339 55.89C47.5472 55.9967 47.6039 56.14 47.6039 56.32C47.6039 56.5067 47.5472 56.6567 47.4339 56.77C47.3272 56.8833 47.1839 56.94 47.0039 56.94ZM51.65 61.6L52.45 58.49H53.75L52.45 61.6H51.65ZM58.9961 60.1C58.5494 60.1 58.1594 60.0133 57.8261 59.84C57.4994 59.66 57.2461 59.41 57.0661 59.09C56.8861 58.7633 56.7961 58.3833 56.7961 57.95V54.75C56.7961 54.31 56.8861 53.93 57.0661 53.61C57.2461 53.29 57.4994 53.0433 57.8261 52.87C58.1594 52.69 58.5494 52.6 58.9961 52.6C59.4494 52.6 59.8394 52.69 60.1661 52.87C60.4928 53.0433 60.7461 53.29 60.9261 53.61C61.1061 53.93 61.1961 54.31 61.1961 54.75V57.95C61.1961 58.3833 61.1061 58.7633 60.9261 59.09C60.7461 59.41 60.4894 59.66 60.1561 59.84C59.8294 60.0133 59.4428 60.1 58.9961 60.1ZM58.9961 59.33C59.3961 59.33 59.7161 59.2033 59.9561 58.95C60.2028 58.69 60.3261 58.3567 60.3261 57.95V54.75C60.3261 54.3433 60.2028 54.0133 59.9561 53.76C59.7161 53.5 59.3961 53.37 58.9961 53.37C58.5961 53.37 58.2728 53.5 58.0261 53.76C57.7861 54.0133 57.6661 54.3433 57.6661 54.75V57.95C57.6661 58.3567 57.7861 58.69 58.0261 58.95C58.2728 59.2033 58.5961 59.33 58.9961 59.33ZM58.9961 56.94C58.8161 56.94 58.6694 56.8833 58.5561 56.77C58.4494 56.6567 58.3961 56.5067 58.3961 56.32C58.3961 56.14 58.4494 55.9967 58.5561 55.89C58.6694 55.7767 58.8161 55.72 58.9961 55.72C59.1761 55.72 59.3194 55.7767 59.4261 55.89C59.5394 55.9967 59.5961 56.14 59.5961 56.32C59.5961 56.5067 59.5394 56.6567 59.4261 56.77C59.3194 56.8833 59.1761 56.94 58.9961 56.94ZM63.6422 61.6L64.4422 58.49H65.7422L64.4422 61.6H63.6422ZM70.9983 60.1C70.5316 60.1 70.1216 60.0033 69.7683 59.81C69.4216 59.61 69.1516 59.3333 68.9583 58.98C68.7649 58.6267 68.6683 58.2167 68.6683 57.75C68.6683 57.3833 68.7183 57.0233 68.8183 56.67C68.9249 56.3167 69.0816 55.9767 69.2883 55.65L71.1183 52.7H72.1183L70.0483 56.02L70.0883 56.05C70.2149 55.8633 70.3883 55.72 70.6083 55.62C70.8283 55.52 71.0749 55.47 71.3483 55.47C71.7483 55.47 72.0949 55.5633 72.3883 55.75C72.6816 55.9367 72.9083 56.2 73.0683 56.54C73.2283 56.88 73.3083 57.2833 73.3083 57.75C73.3083 58.2167 73.2116 58.6267 73.0183 58.98C72.8249 59.3333 72.5549 59.61 72.2083 59.81C71.8683 60.0033 71.4649 60.1 70.9983 60.1ZM70.9883 59.3C71.4149 59.3 71.7583 59.16 72.0183 58.88C72.2783 58.5933 72.4083 58.2167 72.4083 57.75C72.4083 57.2833 72.2783 56.91 72.0183 56.63C71.7583 56.3433 71.4149 56.2 70.9883 56.2C70.5616 56.2 70.2183 56.3433 69.9583 56.63C69.6983 56.91 69.5683 57.2833 69.5683 57.75C69.5683 58.2167 69.6983 58.5933 69.9583 58.88C70.2183 59.16 70.5616 59.3 70.9883 59.3ZM75.1344 61.2V60.31C75.5677 60.21 75.941 60.0233 76.2544 59.75C76.5677 59.47 76.8077 59.12 76.9744 58.7C77.1477 58.28 77.2344 57.8133 77.2344 57.3V55.5C77.2344 54.9733 77.1477 54.5 76.9744 54.08C76.801 53.66 76.5577 53.31 76.2444 53.03C75.931 52.7433 75.561 52.55 75.1344 52.45V51.6C75.7544 51.7533 76.2877 52.0133 76.7344 52.38C77.181 52.7467 77.5244 53.1967 77.7644 53.73C78.011 54.2567 78.1344 54.8467 78.1344 55.5V57.3C78.1344 58.2933 77.871 59.1333 77.3444 59.82C76.8177 60.5067 76.081 60.9667 75.1344 61.2Z" fill="#F0F0F0"/>
<rect width="100" height="100" transform="translate(100)" fill="#303030"/>
<path d="M129.844 47L130.214 45H129.364V44.35H130.334L130.694 42.35H129.714V41.7H130.814L131.184 39.7H131.884L131.514 41.7H133.114L133.484 39.7H134.184L133.814 41.7H134.664V42.35H133.694L133.334 44.35H134.314V45H133.214L132.844 47H132.144L132.514 45H130.914L130.544 47H129.844ZM131.034 44.35H132.634L132.994 42.35H131.394L131.034 44.35ZM137.9 47.1C137.46 47.1 137.073 47.0133 136.74 46.84C136.413 46.66 136.16 46.4133 135.98 46.1C135.8 45.7867 135.71 45.42 135.71 45H136.61C136.61 45.4067 136.723 45.7267 136.95 45.96C137.183 46.1867 137.503 46.3 137.91 46.3C138.323 46.3 138.643 46.18 138.87 45.94C139.096 45.7 139.21 45.3867 139.21 45V44.48C139.21 44.0667 139.096 43.7467 138.87 43.52C138.643 43.2933 138.323 43.18 137.91 43.18H137.16V42.28L138.97 40.52H136.01V39.7H139.88V40.6L137.93 42.49V42.38C138.596 42.38 139.126 42.57 139.52 42.95C139.913 43.33 140.11 43.84 140.11 44.48V45C140.11 45.42 140.016 45.7867 139.83 46.1C139.65 46.4133 139.393 46.66 139.06 46.84C138.726 47.0133 138.34 47.1 137.9 47.1ZM144.006 47.1C143.559 47.1 143.169 47.0133 142.836 46.84C142.509 46.66 142.256 46.41 142.076 46.09C141.896 45.7633 141.806 45.3833 141.806 44.95V41.75C141.806 41.31 141.896 40.93 142.076 40.61C142.256 40.29 142.509 40.0433 142.836 39.87C143.169 39.69 143.559 39.6 144.006 39.6C144.459 39.6 144.849 39.69 145.176 39.87C145.503 40.0433 145.756 40.29 145.936 40.61C146.116 40.93 146.206 41.31 146.206 41.75V44.95C146.206 45.3833 146.116 45.7633 145.936 46.09C145.756 46.41 145.499 46.66 145.166 46.84C144.839 47.0133 144.453 47.1 144.006 47.1ZM144.006 46.33C144.406 46.33 144.726 46.2033 144.966 45.95C145.213 45.69 145.336 45.3567 145.336 44.95V41.75C145.336 41.3433 145.213 41.0133 144.966 40.76C144.726 40.5 144.406 40.37 144.006 40.37C143.606 40.37 143.283 40.5 143.036 40.76C142.796 41.0133 142.676 41.3433 142.676 41.75V44.95C142.676 45.3567 142.796 45.69 143.036 45.95C143.283 46.2033 143.606 46.33 144.006 46.33ZM144.006 43.94C143.826 43.94 143.679 43.8833 143.566 43.77C143.459 43.6567 143.406 43.5067 143.406 43.32C143.406 43.14 143.459 42.9967 143.566 42.89C143.679 42.7767 143.826 42.72 144.006 42.72C144.186 42.72 144.329 42.7767 144.436 42.89C144.549 42.9967 144.606 43.14 144.606 43.32C144.606 43.5067 144.549 43.6567 144.436 43.77C144.329 43.8833 144.186 43.94 144.006 43.94ZM149.892 47.1C149.452 47.1 149.065 47.0133 148.732 46.84C148.405 46.66 148.152 46.4133 147.972 46.1C147.792 45.7867 147.702 45.42 147.702 45H148.602C148.602 45.4067 148.715 45.7267 148.942 45.96C149.175 46.1867 149.495 46.3 149.902 46.3C150.315 46.3 150.635 46.18 150.862 45.94C151.089 45.7 151.202 45.3867 151.202 45V44.48C151.202 44.0667 151.089 43.7467 150.862 43.52C150.635 43.2933 150.315 43.18 149.902 43.18H149.152V42.28L150.962 40.52H148.002V39.7H151.872V40.6L149.922 42.49V42.38C150.589 42.38 151.119 42.57 151.512 42.95C151.905 43.33 152.102 43.84 152.102 44.48V45C152.102 45.42 152.009 45.7867 151.822 46.1C151.642 46.4133 151.385 46.66 151.052 46.84C150.719 47.0133 150.332 47.1 149.892 47.1ZM155.998 47.1C155.551 47.1 155.161 47.0133 154.828 46.84C154.501 46.66 154.248 46.41 154.068 46.09C153.888 45.7633 153.798 45.3833 153.798 44.95V41.75C153.798 41.31 153.888 40.93 154.068 40.61C154.248 40.29 154.501 40.0433 154.828 39.87C155.161 39.69 155.551 39.6 155.998 39.6C156.451 39.6 156.841 39.69 157.168 39.87C157.495 40.0433 157.748 40.29 157.928 40.61C158.108 40.93 158.198 41.31 158.198 41.75V44.95C158.198 45.3833 158.108 45.7633 157.928 46.09C157.748 46.41 157.491 46.66 157.158 46.84C156.831 47.0133 156.445 47.1 155.998 47.1ZM155.998 46.33C156.398 46.33 156.718 46.2033 156.958 45.95C157.205 45.69 157.328 45.3567 157.328 44.95V41.75C157.328 41.3433 157.205 41.0133 156.958 40.76C156.718 40.5 156.398 40.37 155.998 40.37C155.598 40.37 155.275 40.5 155.028 40.76C154.788 41.0133 154.668 41.3433 154.668 41.75V44.95C154.668 45.3567 154.788 45.69 155.028 45.95C155.275 46.2033 155.598 46.33 155.998 46.33ZM155.998 43.94C155.818 43.94 155.671 43.8833 155.558 43.77C155.451 43.6567 155.398 43.5067 155.398 43.32C155.398 43.14 155.451 42.9967 155.558 42.89C155.671 42.7767 155.818 42.72 155.998 42.72C156.178 42.72 156.321 42.7767 156.428 42.89C156.541 42.9967 156.598 43.14 156.598 43.32C156.598 43.5067 156.541 43.6567 156.428 43.77C156.321 43.8833 156.178 43.94 155.998 43.94ZM161.884 47.1C161.444 47.1 161.057 47.0133 160.724 46.84C160.397 46.66 160.144 46.4133 159.964 46.1C159.784 45.7867 159.694 45.42 159.694 45H160.594C160.594 45.4067 160.707 45.7267 160.934 45.96C161.167 46.1867 161.487 46.3 161.894 46.3C162.307 46.3 162.627 46.18 162.854 45.94C163.081 45.7 163.194 45.3867 163.194 45V44.48C163.194 44.0667 163.081 43.7467 162.854 43.52C162.627 43.2933 162.307 43.18 161.894 43.18H161.144V42.28L162.954 40.52H159.994V39.7H163.864V40.6L161.914 42.49V42.38C162.581 42.38 163.111 42.57 163.504 42.95C163.897 43.33 164.094 43.84 164.094 44.48V45C164.094 45.42 164.001 45.7867 163.814 46.1C163.634 46.4133 163.377 46.66 163.044 46.84C162.711 47.0133 162.324 47.1 161.884 47.1ZM167.99 47.1C167.544 47.1 167.154 47.0133 166.82 46.84C166.494 46.66 166.24 46.41 166.06 46.09C165.88 45.7633 165.79 45.3833 165.79 44.95V41.75C165.79 41.31 165.88 40.93 166.06 40.61C166.24 40.29 166.494 40.0433 166.82 39.87C167.154 39.69 167.544 39.6 167.99 39.6C168.444 39.6 168.834 39.69 169.16 39.87C169.487 40.0433 169.74 40.29 169.92 40.61C170.1 40.93 170.19 41.31 170.19 41.75V44.95C170.19 45.3833 170.1 45.7633 169.92 46.09C169.74 46.41 169.484 46.66 169.15 46.84C168.824 47.0133 168.437 47.1 167.99 47.1ZM167.99 46.33C168.39 46.33 168.71 46.2033 168.95 45.95C169.197 45.69 169.32 45.3567 169.32 44.95V41.75C169.32 41.3433 169.197 41.0133 168.95 40.76C168.71 40.5 168.39 40.37 167.99 40.37C167.59 40.37 167.267 40.5 167.02 40.76C166.78 41.0133 166.66 41.3433 166.66 41.75V44.95C166.66 45.3567 166.78 45.69 167.02 45.95C167.267 46.2033 167.59 46.33 167.99 46.33ZM167.99 43.94C167.81 43.94 167.664 43.8833 167.55 43.77C167.444 43.6567 167.39 43.5067 167.39 43.32C167.39 43.14 167.444 42.9967 167.55 42.89C167.664 42.7767 167.81 42.72 167.99 42.72C168.17 42.72 168.314 42.7767 168.42 42.89C168.534 42.9967 168.59 43.14 168.59 43.32C168.59 43.5067 168.534 43.6567 168.42 43.77C168.314 43.8833 168.17 43.94 167.99 43.94ZM117.941 60V52.7H118.841V54.5V55.55H119.031L118.841 55.76C118.841 55.3267 118.971 54.9933 119.231 54.76C119.491 54.52 119.851 54.4 120.311 54.4C120.865 54.4 121.305 54.57 121.631 54.91C121.958 55.25 122.121 55.7133 122.121 56.3V60H121.221V56.4C121.221 56.0067 121.115 55.7033 120.901 55.49C120.695 55.27 120.411 55.16 120.051 55.16C119.678 55.16 119.381 55.2767 119.161 55.51C118.948 55.7433 118.841 56.0733 118.841 56.5V60H117.941ZM125.848 60.08C125.474 60.08 125.148 60.0233 124.868 59.91C124.594 59.79 124.374 59.6233 124.208 59.41C124.048 59.1967 123.951 58.9433 123.918 58.65H124.818C124.858 58.8433 124.964 58.9967 125.138 59.11C125.318 59.2233 125.554 59.28 125.848 59.28H126.268C126.621 59.28 126.884 59.21 127.058 59.07C127.231 58.9233 127.318 58.73 127.318 58.49C127.318 58.2567 127.238 58.0733 127.078 57.94C126.924 57.8 126.694 57.7067 126.388 57.66L125.648 57.54C125.108 57.4467 124.704 57.28 124.438 57.04C124.178 56.7933 124.048 56.4367 124.048 55.97C124.048 55.4767 124.204 55.0967 124.518 54.83C124.831 54.5567 125.301 54.42 125.928 54.42H126.308C126.834 54.42 127.258 54.5433 127.578 54.79C127.898 55.0367 128.091 55.37 128.158 55.79H127.258C127.218 55.6167 127.118 55.48 126.958 55.38C126.798 55.2733 126.581 55.22 126.308 55.22H125.928C125.588 55.22 125.338 55.2833 125.178 55.41C125.024 55.5367 124.948 55.7267 124.948 55.98C124.948 56.2067 125.014 56.3733 125.148 56.48C125.281 56.5867 125.491 56.6633 125.778 56.71L126.518 56.83C127.111 56.9233 127.541 57.0967 127.808 57.35C128.081 57.6033 128.218 57.97 128.218 58.45C128.218 58.9567 128.054 59.3567 127.728 59.65C127.408 59.9367 126.921 60.08 126.268 60.08H125.848ZM132.334 60.1C131.88 60.1 131.517 59.98 131.244 59.74C130.97 59.4933 130.834 59.16 130.834 58.74L131.014 58.95H130.834V60H129.934V52.7H130.834V54.3L130.814 55.55H131.014L130.834 55.76C130.834 55.3467 130.97 55.0167 131.244 54.77C131.524 54.5233 131.887 54.4 132.334 54.4C132.887 54.4 133.33 54.5833 133.664 54.95C133.997 55.3167 134.164 55.8167 134.164 56.45V58.06C134.164 58.6867 133.997 59.1833 133.664 59.55C133.33 59.9167 132.887 60.1 132.334 60.1ZM132.034 59.32C132.414 59.32 132.714 59.2067 132.934 58.98C133.154 58.7533 133.264 58.4267 133.264 58V56.5C133.264 56.0733 133.154 55.7467 132.934 55.52C132.714 55.2933 132.414 55.18 132.034 55.18C131.667 55.18 131.374 55.2967 131.154 55.53C130.94 55.7633 130.834 56.0867 130.834 56.5V58C130.834 58.4133 130.94 58.7367 131.154 58.97C131.374 59.2033 131.667 59.32 132.034 59.32ZM139.86 61.2C138.913 60.9667 138.176 60.5067 137.65 59.82C137.123 59.1333 136.86 58.2933 136.86 57.3V55.5C136.86 54.8467 136.98 54.2567 137.22 53.73C137.466 53.1967 137.813 52.7467 138.26 52.38C138.713 52.0133 139.246 51.7533 139.86 51.6V52.45C139.433 52.55 139.063 52.7433 138.75 53.03C138.436 53.31 138.193 53.66 138.02 54.08C137.846 54.5 137.76 54.9733 137.76 55.5V57.3C137.76 57.8133 137.843 58.28 138.01 58.7C138.183 59.12 138.426 59.47 138.74 59.75C139.06 60.0233 139.433 60.21 139.86 60.31V61.2ZM144.006 60.1C143.559 60.1 143.169 60.0133 142.836 59.84C142.509 59.66 142.256 59.41 142.076 59.09C141.896 58.7633 141.806 58.3833 141.806 57.95V54.75C141.806 54.31 141.896 53.93 142.076 53.61C142.256 53.29 142.509 53.0433 142.836 52.87C143.169 52.69 143.559 52.6 144.006 52.6C144.459 52.6 144.849 52.69 145.176 52.87C145.503 53.0433 145.756 53.29 145.936 53.61C146.116 53.93 146.206 54.31 146.206 54.75V57.95C146.206 58.3833 146.116 58.7633 145.936 59.09C145.756 59.41 145.499 59.66 145.166 59.84C144.839 60.0133 144.453 60.1 144.006 60.1ZM144.006 59.33C144.406 59.33 144.726 59.2033 144.966 58.95C145.213 58.69 145.336 58.3567 145.336 57.95V54.75C145.336 54.3433 145.213 54.0133 144.966 53.76C144.726 53.5 144.406 53.37 144.006 53.37C143.606 53.37 143.283 53.5 143.036 53.76C142.796 54.0133 142.676 54.3433 142.676 54.75V57.95C142.676 58.3567 142.796 58.69 143.036 58.95C143.283 59.2033 143.606 59.33 144.006 59.33ZM144.006 56.94C143.826 56.94 143.679 56.8833 143.566 56.77C143.459 56.6567 143.406 56.5067 143.406 56.32C143.406 56.14 143.459 55.9967 143.566 55.89C143.679 55.7767 143.826 55.72 144.006 55.72C144.186 55.72 144.329 55.7767 144.436 55.89C144.549 55.9967 144.606 56.14 144.606 56.32C144.606 56.5067 144.549 56.6567 144.436 56.77C144.329 56.8833 144.186 56.94 144.006 56.94ZM148.652 61.6L149.452 58.49H150.752L149.452 61.6H148.652ZM155.998 60.1C155.551 60.1 155.161 60.0133 154.828 59.84C154.501 59.66 154.248 59.41 154.068 59.09C153.888 58.7633 153.798 58.3833 153.798 57.95V54.75C153.798 54.31 153.888 53.93 154.068 53.61C154.248 53.29 154.501 53.0433 154.828 52.87C155.161 52.69 155.551 52.6 155.998 52.6C156.451 52.6 156.841 52.69 157.168 52.87C157.495 53.0433 157.748 53.29 157.928 53.61C158.108 53.93 158.198 54.31 158.198 54.75V57.95C158.198 58.3833 158.108 58.7633 157.928 59.09C157.748 59.41 157.491 59.66 157.158 59.84C156.831 60.0133 156.445 60.1 155.998 60.1ZM155.998 59.33C156.398 59.33 156.718 59.2033 156.958 58.95C157.205 58.69 157.328 58.3567 157.328 57.95V54.75C157.328 54.3433 157.205 54.0133 156.958 53.76C156.718 53.5 156.398 53.37 155.998 53.37C155.598 53.37 155.275 53.5 155.028 53.76C154.788 54.0133 154.668 54.3433 154.668 54.75V57.95C154.668 58.3567 154.788 58.69 155.028 58.95C155.275 59.2033 155.598 59.33 155.998 59.33ZM155.998 56.94C155.818 56.94 155.671 56.8833 155.558 56.77C155.451 56.6567 155.398 56.5067 155.398 56.32C155.398 56.14 155.451 55.9967 155.558 55.89C155.671 55.7767 155.818 55.72 155.998 55.72C156.178 55.72 156.321 55.7767 156.428 55.89C156.541 55.9967 156.598 56.14 156.598 56.32C156.598 56.5067 156.541 56.6567 156.428 56.77C156.321 56.8833 156.178 56.94 155.998 56.94ZM160.644 61.6L161.444 58.49H162.744L161.444 61.6H160.644ZM165.89 60V59.18H167.87V53.45L165.89 54.93V53.93L167.54 52.7H168.77V59.18H170.39V60H165.89ZM172.856 60L174.926 56.68L174.886 56.65C174.76 56.8367 174.586 56.98 174.366 57.08C174.146 57.18 173.9 57.23 173.626 57.23C173.233 57.23 172.886 57.1367 172.586 56.95C172.293 56.7633 172.066 56.5 171.906 56.16C171.746 55.8133 171.666 55.41 171.666 54.95C171.666 54.4767 171.763 54.0667 171.956 53.72C172.15 53.3667 172.42 53.0933 172.766 52.9C173.113 52.7 173.516 52.6 173.976 52.6C174.443 52.6 174.85 52.7 175.196 52.9C175.55 53.0933 175.823 53.3667 176.016 53.72C176.21 54.0667 176.306 54.4767 176.306 54.95C176.306 55.3167 176.253 55.6767 176.146 56.03C176.046 56.3833 175.893 56.7233 175.686 57.05L173.856 60H172.856ZM173.986 56.5C174.413 56.5 174.756 56.36 175.016 56.08C175.276 55.7933 175.406 55.4167 175.406 54.95C175.406 54.4833 175.276 54.11 175.016 53.83C174.756 53.5433 174.413 53.4 173.986 53.4C173.56 53.4 173.216 53.5433 172.956 53.83C172.696 54.11 172.566 54.4833 172.566 54.95C172.566 55.4167 172.696 55.7933 172.956 56.08C173.216 56.36 173.56 56.5 173.986 56.5ZM178.132 61.2V60.31C178.566 60.21 178.939 60.0233 179.252 59.75C179.566 59.47 179.806 59.12 179.972 58.7C180.146 58.28 180.232 57.8133 180.232 57.3V55.5C180.232 54.9733 180.146 54.5 179.972 54.08C179.799 53.66 179.556 53.31 179.242 53.03C178.929 52.7433 178.559 52.55 178.132 52.45V51.6C178.752 51.7533 179.286 52.0133 179.732 52.38C180.179 52.7467 180.522 53.1967 180.762 53.73C181.009 54.2567 181.132 54.8467 181.132 55.5V57.3C181.132 58.2933 180.869 59.1333 180.342 59.82C179.816 60.5067 179.079 60.9667 178.132 61.2Z" fill="#F0F0F0"/>
<rect width="100" height="100" transform="translate(200)" fill="#4F4F4F"/>
<path d="M229.844 47L230.214 45H229.364V44.35H230.334L230.694 42.35H229.714V41.7H230.814L231.184 39.7H231.884L231.514 41.7H233.114L233.484 39.7H234.184L233.814 41.7H234.664V42.35H233.694L233.334 44.35H234.314V45H233.214L232.844 47H232.144L232.514 45H230.914L230.544 47H229.844ZM231.034 44.35H232.634L232.994 42.35H231.394L231.034 44.35ZM239.11 47V45.4H235.81V43.99L238.7 39.7H239.68L236.71 44.18V44.58H239.11V42.8H240.01V47H239.11ZM243.206 47V42.87H241.606V42.05H243.206V41.1C243.206 40.6667 243.343 40.3267 243.616 40.08C243.889 39.8267 244.266 39.7 244.746 39.7H246.356V40.52H244.746C244.539 40.52 244.379 40.57 244.266 40.67C244.159 40.7633 244.106 40.9067 244.106 41.1V42.05H246.356V42.87H244.106V47H243.206ZM251.102 47V45.4H247.802V43.99L250.692 39.7H251.672L248.702 44.18V44.58H251.102V42.8H252.002V47H251.102ZM255.198 47V42.87H253.598V42.05H255.198V41.1C255.198 40.6667 255.335 40.3267 255.608 40.08C255.881 39.8267 256.258 39.7 256.738 39.7H258.348V40.52H256.738C256.531 40.52 256.371 40.57 256.258 40.67C256.151 40.7633 256.098 40.9067 256.098 41.1V42.05H258.348V42.87H256.098V47H255.198ZM263.094 47V45.4H259.794V43.99L262.684 39.7H263.664L260.694 44.18V44.58H263.094V42.8H263.994V47H263.094ZM267.19 47V42.87H265.59V42.05H267.19V41.1C267.19 40.6667 267.327 40.3267 267.6 40.08C267.874 39.8267 268.25 39.7 268.73 39.7H270.34V40.52H268.73C268.524 40.52 268.364 40.57 268.25 40.67C268.144 40.7633 268.09 40.9067 268.09 41.1V42.05H270.34V42.87H268.09V47H267.19ZM217.941 60V52.7H218.841V54.5V55.55H219.031L218.841 55.76C218.841 55.3267 218.971 54.9933 219.231 54.76C219.491 54.52 219.851 54.4 220.311 54.4C220.865 54.4 221.305 54.57 221.631 54.91C221.958 55.25 222.121 55.7133 222.121 56.3V60H221.221V56.4C221.221 56.0067 221.115 55.7033 220.901 55.49C220.695 55.27 220.411 55.16 220.051 55.16C219.678 55.16 219.381 55.2767 219.161 55.51C218.948 55.7433 218.841 56.0733 218.841 56.5V60H217.941ZM225.848 60.08C225.474 60.08 225.148 60.0233 224.868 59.91C224.594 59.79 224.374 59.6233 224.208 59.41C224.048 59.1967 223.951 58.9433 223.918 58.65H224.818C224.858 58.8433 224.964 58.9967 225.138 59.11C225.318 59.2233 225.554 59.28 225.848 59.28H226.268C226.621 59.28 226.884 59.21 227.058 59.07C227.231 58.9233 227.318 58.73 227.318 58.49C227.318 58.2567 227.238 58.0733 227.078 57.94C226.924 57.8 226.694 57.7067 226.388 57.66L225.648 57.54C225.108 57.4467 224.704 57.28 224.438 57.04C224.178 56.7933 224.048 56.4367 224.048 55.97C224.048 55.4767 224.204 55.0967 224.518 54.83C224.831 54.5567 225.301 54.42 225.928 54.42H226.308C226.834 54.42 227.258 54.5433 227.578 54.79C227.898 55.0367 228.091 55.37 228.158 55.79H227.258C227.218 55.6167 227.118 55.48 226.958 55.38C226.798 55.2733 226.581 55.22 226.308 55.22H225.928C225.588 55.22 225.338 55.2833 225.178 55.41C225.024 55.5367 224.948 55.7267 224.948 55.98C224.948 56.2067 225.014 56.3733 225.148 56.48C225.281 56.5867 225.491 56.6633 225.778 56.71L226.518 56.83C227.111 56.9233 227.541 57.0967 227.808 57.35C228.081 57.6033 228.218 57.97 228.218 58.45C228.218 58.9567 228.054 59.3567 227.728 59.65C227.408 59.9367 226.921 60.08 226.268 60.08H225.848ZM232.334 60.1C231.88 60.1 231.517 59.98 231.244 59.74C230.97 59.4933 230.834 59.16 230.834 58.74L231.014 58.95H230.834V60H229.934V52.7H230.834V54.3L230.814 55.55H231.014L230.834 55.76C230.834 55.3467 230.97 55.0167 231.244 54.77C231.524 54.5233 231.887 54.4 232.334 54.4C232.887 54.4 233.33 54.5833 233.664 54.95C233.997 55.3167 234.164 55.8167 234.164 56.45V58.06C234.164 58.6867 233.997 59.1833 233.664 59.55C233.33 59.9167 232.887 60.1 232.334 60.1ZM232.034 59.32C232.414 59.32 232.714 59.2067 232.934 58.98C233.154 58.7533 233.264 58.4267 233.264 58V56.5C233.264 56.0733 233.154 55.7467 232.934 55.52C232.714 55.2933 232.414 55.18 232.034 55.18C231.667 55.18 231.374 55.2967 231.154 55.53C230.94 55.7633 230.834 56.0867 230.834 56.5V58C230.834 58.4133 230.94 58.7367 231.154 58.97C231.374 59.2033 231.667 59.32 232.034 59.32ZM239.86 61.2C238.913 60.9667 238.176 60.5067 237.65 59.82C237.123 59.1333 236.86 58.2933 236.86 57.3V55.5C236.86 54.8467 236.98 54.2567 237.22 53.73C237.466 53.1967 237.813 52.7467 238.26 52.38C238.713 52.0133 239.246 51.7533 239.86 51.6V52.45C239.433 52.55 239.063 52.7433 238.75 53.03C238.436 53.31 238.193 53.66 238.02 54.08C237.846 54.5 237.76 54.9733 237.76 55.5V57.3C237.76 57.8133 237.843 58.28 238.01 58.7C238.183 59.12 238.426 59.47 238.74 59.75C239.06 60.0233 239.433 60.21 239.86 60.31V61.2ZM244.006 60.1C243.559 60.1 243.169 60.0133 242.836 59.84C242.509 59.66 242.256 59.41 242.076 59.09C241.896 58.7633 241.806 58.3833 241.806 57.95V54.75C241.806 54.31 241.896 53.93 242.076 53.61C242.256 53.29 242.509 53.0433 242.836 52.87C243.169 52.69 243.559 52.6 244.006 52.6C244.459 52.6 244.849 52.69 245.176 52.87C245.503 53.0433 245.756 53.29 245.936 53.61C246.116 53.93 246.206 54.31 246.206 54.75V57.95C246.206 58.3833 246.116 58.7633 245.936 59.09C245.756 59.41 245.499 59.66 245.166 59.84C244.839 60.0133 244.453 60.1 244.006 60.1ZM244.006 59.33C244.406 59.33 244.726 59.2033 244.966 58.95C245.213 58.69 245.336 58.3567 245.336 57.95V54.75C245.336 54.3433 245.213 54.0133 244.966 53.76C244.726 53.5 244.406 53.37 244.006 53.37C243.606 53.37 243.283 53.5 243.036 53.76C242.796 54.0133 242.676 54.3433 242.676 54.75V57.95C242.676 58.3567 242.796 58.69 243.036 58.95C243.283 59.2033 243.606 59.33 244.006 59.33ZM244.006 56.94C243.826 56.94 243.679 56.8833 243.566 56.77C243.459 56.6567 243.406 56.5067 243.406 56.32C243.406 56.14 243.459 55.9967 243.566 55.89C243.679 55.7767 243.826 55.72 244.006 55.72C244.186 55.72 244.329 55.7767 244.436 55.89C244.549 55.9967 244.606 56.14 244.606 56.32C244.606 56.5067 244.549 56.6567 244.436 56.77C244.329 56.8833 244.186 56.94 244.006 56.94ZM248.652 61.6L249.452 58.49H250.752L249.452 61.6H248.652ZM255.998 60.1C255.551 60.1 255.161 60.0133 254.828 59.84C254.501 59.66 254.248 59.41 254.068 59.09C253.888 58.7633 253.798 58.3833 253.798 57.95V54.75C253.798 54.31 253.888 53.93 254.068 53.61C254.248 53.29 254.501 53.0433 254.828 52.87C255.161 52.69 255.551 52.6 255.998 52.6C256.451 52.6 256.841 52.69 257.168 52.87C257.495 53.0433 257.748 53.29 257.928 53.61C258.108 53.93 258.198 54.31 258.198 54.75V57.95C258.198 58.3833 258.108 58.7633 257.928 59.09C257.748 59.41 257.491 59.66 257.158 59.84C256.831 60.0133 256.445 60.1 255.998 60.1ZM255.998 59.33C256.398 59.33 256.718 59.2033 256.958 58.95C257.205 58.69 257.328 58.3567 257.328 57.95V54.75C257.328 54.3433 257.205 54.0133 256.958 53.76C256.718 53.5 256.398 53.37 255.998 53.37C255.598 53.37 255.275 53.5 255.028 53.76C254.788 54.0133 254.668 54.3433 254.668 54.75V57.95C254.668 58.3567 254.788 58.69 255.028 58.95C255.275 59.2033 255.598 59.33 255.998 59.33ZM255.998 56.94C255.818 56.94 255.671 56.8833 255.558 56.77C255.451 56.6567 255.398 56.5067 255.398 56.32C255.398 56.14 255.451 55.9967 255.558 55.89C255.671 55.7767 255.818 55.72 255.998 55.72C256.178 55.72 256.321 55.7767 256.428 55.89C256.541 55.9967 256.598 56.14 256.598 56.32C256.598 56.5067 256.541 56.6567 256.428 56.77C256.321 56.8833 256.178 56.94 255.998 56.94ZM260.644 61.6L261.444 58.49H262.744L261.444 61.6H260.644ZM267.88 60.1C267.44 60.1 267.054 60.0133 266.72 59.84C266.394 59.66 266.14 59.4133 265.96 59.1C265.78 58.7867 265.69 58.42 265.69 58H266.59C266.59 58.4067 266.704 58.7267 266.93 58.96C267.164 59.1867 267.484 59.3 267.89 59.3C268.304 59.3 268.624 59.18 268.85 58.94C269.077 58.7 269.19 58.3867 269.19 58V57.48C269.19 57.0667 269.077 56.7467 268.85 56.52C268.624 56.2933 268.304 56.18 267.89 56.18H267.14V55.28L268.95 53.52H265.99V52.7H269.86V53.6L267.91 55.49V55.38C268.577 55.38 269.107 55.57 269.5 55.95C269.894 56.33 270.09 56.84 270.09 57.48V58C270.09 58.42 269.997 58.7867 269.81 59.1C269.63 59.4133 269.374 59.66 269.04 59.84C268.707 60.0133 268.32 60.1 267.88 60.1ZM271.886 60V59.18H273.866V53.45L271.886 54.93V53.93L273.536 52.7H274.766V59.18H276.386V60H271.886ZM278.132 61.2V60.31C278.566 60.21 278.939 60.0233 279.252 59.75C279.566 59.47 279.806 59.12 279.972 58.7C280.146 58.28 280.232 57.8133 280.232 57.3V55.5C280.232 54.9733 280.146 54.5 279.972 54.08C279.799 53.66 279.556 53.31 279.242 53.03C278.929 52.7433 278.559 52.55 278.132 52.45V51.6C278.752 51.7533 279.286 52.0133 279.732 52.38C280.179 52.7467 280.522 53.1967 280.762 53.73C281.009 54.2567 281.132 54.8467 281.132 55.5V57.3C281.132 58.2933 280.869 59.1333 280.342 59.82C279.816 60.5067 279.079 60.9667 278.132 61.2Z" fill="#F0F0F0"/>
<rect width="100" height="100" transform="translate(300)" fill="#707070"/>
<path d="M329.844 47L330.214 45H329.364V44.35H330.334L330.694 42.35H329.714V41.7H330.814L331.184 39.7H331.884L331.514 41.7H333.114L333.484 39.7H334.184L333.814 41.7H334.664V42.35H333.694L333.334 44.35H334.314V45H333.214L332.844 47H332.144L332.514 45H330.914L330.544 47H329.844ZM331.034 44.35H332.634L332.994 42.35H331.394L331.034 44.35ZM336.86 47L339.47 40.52H336.71V41.6H335.81V39.7H340.36V40.58L337.83 47H336.86ZM344.006 47.1C343.559 47.1 343.169 47.0133 342.836 46.84C342.509 46.66 342.256 46.41 342.076 46.09C341.896 45.7633 341.806 45.3833 341.806 44.95V41.75C341.806 41.31 341.896 40.93 342.076 40.61C342.256 40.29 342.509 40.0433 342.836 39.87C343.169 39.69 343.559 39.6 344.006 39.6C344.459 39.6 344.849 39.69 345.176 39.87C345.503 40.0433 345.756 40.29 345.936 40.61C346.116 40.93 346.206 41.31 346.206 41.75V44.95C346.206 45.3833 346.116 45.7633 345.936 46.09C345.756 46.41 345.499 46.66 345.166 46.84C344.839 47.0133 344.453 47.1 344.006 47.1ZM344.006 46.33C344.406 46.33 344.726 46.2033 344.966 45.95C345.213 45.69 345.336 45.3567 345.336 44.95V41.75C345.336 41.3433 345.213 41.0133 344.966 40.76C344.726 40.5 344.406 40.37 344.006 40.37C343.606 40.37 343.283 40.5 343.036 40.76C342.796 41.0133 342.676 41.3433 342.676 41.75V44.95C342.676 45.3567 342.796 45.69 343.036 45.95C343.283 46.2033 343.606 46.33 344.006 46.33ZM344.006 43.94C343.826 43.94 343.679 43.8833 343.566 43.77C343.459 43.6567 343.406 43.5067 343.406 43.32C343.406 43.14 343.459 42.9967 343.566 42.89C343.679 42.7767 343.826 42.72 344.006 42.72C344.186 42.72 344.329 42.7767 344.436 42.89C344.549 42.9967 344.606 43.14 344.606 43.32C344.606 43.5067 344.549 43.6567 344.436 43.77C344.329 43.8833 344.186 43.94 344.006 43.94ZM348.852 47L351.462 40.52H348.702V41.6H347.802V39.7H352.352V40.58L349.822 47H348.852ZM355.998 47.1C355.551 47.1 355.161 47.0133 354.828 46.84C354.501 46.66 354.248 46.41 354.068 46.09C353.888 45.7633 353.798 45.3833 353.798 44.95V41.75C353.798 41.31 353.888 40.93 354.068 40.61C354.248 40.29 354.501 40.0433 354.828 39.87C355.161 39.69 355.551 39.6 355.998 39.6C356.451 39.6 356.841 39.69 357.168 39.87C357.495 40.0433 357.748 40.29 357.928 40.61C358.108 40.93 358.198 41.31 358.198 41.75V44.95C358.198 45.3833 358.108 45.7633 357.928 46.09C357.748 46.41 357.491 46.66 357.158 46.84C356.831 47.0133 356.445 47.1 355.998 47.1ZM355.998 46.33C356.398 46.33 356.718 46.2033 356.958 45.95C357.205 45.69 357.328 45.3567 357.328 44.95V41.75C357.328 41.3433 357.205 41.0133 356.958 40.76C356.718 40.5 356.398 40.37 355.998 40.37C355.598 40.37 355.275 40.5 355.028 40.76C354.788 41.0133 354.668 41.3433 354.668 41.75V44.95C354.668 45.3567 354.788 45.69 355.028 45.95C355.275 46.2033 355.598 46.33 355.998 46.33ZM355.998 43.94C355.818 43.94 355.671 43.8833 355.558 43.77C355.451 43.6567 355.398 43.5067 355.398 43.32C355.398 43.14 355.451 42.9967 355.558 42.89C355.671 42.7767 355.818 42.72 355.998 42.72C356.178 42.72 356.321 42.7767 356.428 42.89C356.541 42.9967 356.598 43.14 356.598 43.32C356.598 43.5067 356.541 43.6567 356.428 43.77C356.321 43.8833 356.178 43.94 355.998 43.94ZM360.844 47L363.454 40.52H360.694V41.6H359.794V39.7H364.344V40.58L361.814 47H360.844ZM367.99 47.1C367.544 47.1 367.154 47.0133 366.82 46.84C366.494 46.66 366.24 46.41 366.06 46.09C365.88 45.7633 365.79 45.3833 365.79 44.95V41.75C365.79 41.31 365.88 40.93 366.06 40.61C366.24 40.29 366.494 40.0433 366.82 39.87C367.154 39.69 367.544 39.6 367.99 39.6C368.444 39.6 368.834 39.69 369.16 39.87C369.487 40.0433 369.74 40.29 369.92 40.61C370.1 40.93 370.19 41.31 370.19 41.75V44.95C370.19 45.3833 370.1 45.7633 369.92 46.09C369.74 46.41 369.484 46.66 369.15 46.84C368.824 47.0133 368.437 47.1 367.99 47.1ZM367.99 46.33C368.39 46.33 368.71 46.2033 368.95 45.95C369.197 45.69 369.32 45.3567 369.32 44.95V41.75C369.32 41.3433 369.197 41.0133 368.95 40.76C368.71 40.5 368.39 40.37 367.99 40.37C367.59 40.37 367.267 40.5 367.02 40.76C366.78 41.0133 366.66 41.3433 366.66 41.75V44.95C366.66 45.3567 366.78 45.69 367.02 45.95C367.267 46.2033 367.59 46.33 367.99 46.33ZM367.99 43.94C367.81 43.94 367.664 43.8833 367.55 43.77C367.444 43.6567 367.39 43.5067 367.39 43.32C367.39 43.14 367.444 42.9967 367.55 42.89C367.664 42.7767 367.81 42.72 367.99 42.72C368.17 42.72 368.314 42.7767 368.42 42.89C368.534 42.9967 368.59 43.14 368.59 43.32C368.59 43.5067 368.534 43.6567 368.42 43.77C368.314 43.8833 368.17 43.94 367.99 43.94ZM317.941 60V52.7H318.841V54.5V55.55H319.031L318.841 55.76C318.841 55.3267 318.971 54.9933 319.231 54.76C319.491 54.52 319.851 54.4 320.311 54.4C320.865 54.4 321.305 54.57 321.631 54.91C321.958 55.25 322.121 55.7133 322.121 56.3V60H321.221V56.4C321.221 56.0067 321.115 55.7033 320.901 55.49C320.695 55.27 320.411 55.16 320.051 55.16C319.678 55.16 319.381 55.2767 319.161 55.51C318.948 55.7433 318.841 56.0733 318.841 56.5V60H317.941ZM325.848 60.08C325.474 60.08 325.148 60.0233 324.868 59.91C324.594 59.79 324.374 59.6233 324.208 59.41C324.048 59.1967 323.951 58.9433 323.918 58.65H324.818C324.858 58.8433 324.964 58.9967 325.138 59.11C325.318 59.2233 325.554 59.28 325.848 59.28H326.268C326.621 59.28 326.884 59.21 327.058 59.07C327.231 58.9233 327.318 58.73 327.318 58.49C327.318 58.2567 327.238 58.0733 327.078 57.94C326.924 57.8 326.694 57.7067 326.388 57.66L325.648 57.54C325.108 57.4467 324.704 57.28 324.438 57.04C324.178 56.7933 324.048 56.4367 324.048 55.97C324.048 55.4767 324.204 55.0967 324.518 54.83C324.831 54.5567 325.301 54.42 325.928 54.42H326.308C326.834 54.42 327.258 54.5433 327.578 54.79C327.898 55.0367 328.091 55.37 328.158 55.79H327.258C327.218 55.6167 327.118 55.48 326.958 55.38C326.798 55.2733 326.581 55.22 326.308 55.22H325.928C325.588 55.22 325.338 55.2833 325.178 55.41C325.024 55.5367 324.948 55.7267 324.948 55.98C324.948 56.2067 325.014 56.3733 325.148 56.48C325.281 56.5867 325.491 56.6633 325.778 56.71L326.518 56.83C327.111 56.9233 327.541 57.0967 327.808 57.35C328.081 57.6033 328.218 57.97 328.218 58.45C328.218 58.9567 328.054 59.3567 327.728 59.65C327.408 59.9367 326.921 60.08 326.268 60.08H325.848ZM332.334 60.1C331.88 60.1 331.517 59.98 331.244 59.74C330.97 59.4933 330.834 59.16 330.834 58.74L331.014 58.95H330.834V60H329.934V52.7H330.834V54.3L330.814 55.55H331.014L330.834 55.76C330.834 55.3467 330.97 55.0167 331.244 54.77C331.524 54.5233 331.887 54.4 332.334 54.4C332.887 54.4 333.33 54.5833 333.664 54.95C333.997 55.3167 334.164 55.8167 334.164 56.45V58.06C334.164 58.6867 333.997 59.1833 333.664 59.55C333.33 59.9167 332.887 60.1 332.334 60.1ZM332.034 59.32C332.414 59.32 332.714 59.2067 332.934 58.98C333.154 58.7533 333.264 58.4267 333.264 58V56.5C333.264 56.0733 333.154 55.7467 332.934 55.52C332.714 55.2933 332.414 55.18 332.034 55.18C331.667 55.18 331.374 55.2967 331.154 55.53C330.94 55.7633 330.834 56.0867 330.834 56.5V58C330.834 58.4133 330.94 58.7367 331.154 58.97C331.374 59.2033 331.667 59.32 332.034 59.32ZM339.86 61.2C338.913 60.9667 338.176 60.5067 337.65 59.82C337.123 59.1333 336.86 58.2933 336.86 57.3V55.5C336.86 54.8467 336.98 54.2567 337.22 53.73C337.466 53.1967 337.813 52.7467 338.26 52.38C338.713 52.0133 339.246 51.7533 339.86 51.6V52.45C339.433 52.55 339.063 52.7433 338.75 53.03C338.436 53.31 338.193 53.66 338.02 54.08C337.846 54.5 337.76 54.9733 337.76 55.5V57.3C337.76 57.8133 337.843 58.28 338.01 58.7C338.183 59.12 338.426 59.47 338.74 59.75C339.06 60.0233 339.433 60.21 339.86 60.31V61.2ZM344.006 60.1C343.559 60.1 343.169 60.0133 342.836 59.84C342.509 59.66 342.256 59.41 342.076 59.09C341.896 58.7633 341.806 58.3833 341.806 57.95V54.75C341.806 54.31 341.896 53.93 342.076 53.61C342.256 53.29 342.509 53.0433 342.836 52.87C343.169 52.69 343.559 52.6 344.006 52.6C344.459 52.6 344.849 52.69 345.176 52.87C345.503 53.0433 345.756 53.29 345.936 53.61C346.116 53.93 346.206 54.31 346.206 54.75V57.95C346.206 58.3833 346.116 58.7633 345.936 59.09C345.756 59.41 345.499 59.66 345.166 59.84C344.839 60.0133 344.453 60.1 344.006 60.1ZM344.006 59.33C344.406 59.33 344.726 59.2033 344.966 58.95C345.213 58.69 345.336 58.3567 345.336 57.95V54.75C345.336 54.3433 345.213 54.0133 344.966 53.76C344.726 53.5 344.406 53.37 344.006 53.37C343.606 53.37 343.283 53.5 343.036 53.76C342.796 54.0133 342.676 54.3433 342.676 54.75V57.95C342.676 58.3567 342.796 58.69 343.036 58.95C343.283 59.2033 343.606 59.33 344.006 59.33ZM344.006 56.94C343.826 56.94 343.679 56.8833 343.566 56.77C343.459 56.6567 343.406 56.5067 343.406 56.32C343.406 56.14 343.459 55.9967 343.566 55.89C343.679 55.7767 343.826 55.72 344.006 55.72C344.186 55.72 344.329 55.7767 344.436 55.89C344.549 55.9967 344.606 56.14 344.606 56.32C344.606 56.5067 344.549 56.6567 344.436 56.77C344.329 56.8833 344.186 56.94 344.006 56.94ZM348.652 61.6L349.452 58.49H350.752L349.452 61.6H348.652ZM355.998 60.1C355.551 60.1 355.161 60.0133 354.828 59.84C354.501 59.66 354.248 59.41 354.068 59.09C353.888 58.7633 353.798 58.3833 353.798 57.95V54.75C353.798 54.31 353.888 53.93 354.068 53.61C354.248 53.29 354.501 53.0433 354.828 52.87C355.161 52.69 355.551 52.6 355.998 52.6C356.451 52.6 356.841 52.69 357.168 52.87C357.495 53.0433 357.748 53.29 357.928 53.61C358.108 53.93 358.198 54.31 358.198 54.75V57.95C358.198 58.3833 358.108 58.7633 357.928 59.09C357.748 59.41 357.491 59.66 357.158 59.84C356.831 60.0133 356.445 60.1 355.998 60.1ZM355.998 59.33C356.398 59.33 356.718 59.2033 356.958 58.95C357.205 58.69 357.328 58.3567 357.328 57.95V54.75C357.328 54.3433 357.205 54.0133 356.958 53.76C356.718 53.5 356.398 53.37 355.998 53.37C355.598 53.37 355.275 53.5 355.028 53.76C354.788 54.0133 354.668 54.3433 354.668 54.75V57.95C354.668 58.3567 354.788 58.69 355.028 58.95C355.275 59.2033 355.598 59.33 355.998 59.33ZM355.998 56.94C355.818 56.94 355.671 56.8833 355.558 56.77C355.451 56.6567 355.398 56.5067 355.398 56.32C355.398 56.14 355.451 55.9967 355.558 55.89C355.671 55.7767 355.818 55.72 355.998 55.72C356.178 55.72 356.321 55.7767 356.428 55.89C356.541 55.9967 356.598 56.14 356.598 56.32C356.598 56.5067 356.541 56.6567 356.428 56.77C356.321 56.8833 356.178 56.94 355.998 56.94ZM360.644 61.6L361.444 58.49H362.744L361.444 61.6H360.644ZM369.09 60V58.4H365.79V56.99L368.68 52.7H369.66L366.69 57.18V57.58H369.09V55.8H369.99V60H369.09ZM375.086 60V58.4H371.786V56.99L374.676 52.7H375.656L372.686 57.18V57.58H375.086V55.8H375.986V60H375.086ZM378.132 61.2V60.31C378.566 60.21 378.939 60.0233 379.252 59.75C379.566 59.47 379.806 59.12 379.972 58.7C380.146 58.28 380.232 57.8133 380.232 57.3V55.5C380.232 54.9733 380.146 54.5 379.972 54.08C379.799 53.66 379.556 53.31 379.242 53.03C378.929 52.7433 378.559 52.55 378.132 52.45V51.6C378.752 51.7533 379.286 52.0133 379.732 52.38C380.179 52.7467 380.522 53.1967 380.762 53.73C381.009 54.2567 381.132 54.8467 381.132 55.5V57.3C381.132 58.2933 380.869 59.1333 380.342 59.82C379.816 60.5067 379.079 60.9667 378.132 61.2Z" fill="#F0F0F0"/>
<rect width="100" height="100" transform="translate(400)" fill="#8F8F8F"/>
<path d="M429.844 47L430.214 45H429.364V44.35H430.334L430.694 42.35H429.714V41.7H430.814L431.184 39.7H431.884L431.514 41.7H433.114L433.484 39.7H434.184L433.814 41.7H434.664V42.35H433.694L433.334 44.35H434.314V45H433.214L432.844 47H432.144L432.514 45H430.914L430.544 47H429.844ZM431.034 44.35H432.634L432.994 42.35H431.394L431.034 44.35ZM438.01 47.1C437.563 47.1 437.173 47.0233 436.84 46.87C436.513 46.71 436.26 46.4833 436.08 46.19C435.9 45.8967 435.81 45.5533 435.81 45.16C435.81 44.7267 435.926 44.3533 436.16 44.04C436.4 43.7267 436.776 43.4467 437.29 43.2L438.26 42.73C438.553 42.59 438.78 42.4067 438.94 42.18C439.1 41.9533 439.18 41.7033 439.18 41.43C439.18 41.11 439.073 40.8567 438.86 40.67C438.653 40.4833 438.37 40.39 438.01 40.39C437.65 40.39 437.363 40.4867 437.15 40.68C436.943 40.8667 436.84 41.12 436.84 41.44C436.84 41.7067 436.916 41.9533 437.07 42.18C437.23 42.4067 437.446 42.5867 437.72 42.72L438.69 43.18C439.223 43.4267 439.61 43.71 439.85 44.03C440.09 44.3433 440.21 44.72 440.21 45.16C440.21 45.7533 440.01 46.2267 439.61 46.58C439.216 46.9267 438.683 47.1 438.01 47.1ZM438.01 46.3C438.416 46.3 438.736 46.1967 438.97 45.99C439.21 45.7767 439.33 45.4933 439.33 45.14C439.33 44.8533 439.253 44.5933 439.1 44.36C438.946 44.1267 438.726 43.94 438.44 43.8L437.48 43.33C436.946 43.07 436.56 42.79 436.32 42.49C436.08 42.19 435.96 41.83 435.96 41.41C435.96 41.0367 436.043 40.7133 436.21 40.44C436.376 40.1667 436.613 39.9567 436.92 39.81C437.226 39.6633 437.59 39.59 438.01 39.59C438.43 39.59 438.793 39.6633 439.1 39.81C439.406 39.9567 439.643 40.1667 439.81 40.44C439.976 40.7133 440.06 41.0367 440.06 41.41C440.06 41.83 439.94 42.19 439.7 42.49C439.46 42.7833 439.063 43.0667 438.51 43.34L437.55 43.81C437.276 43.9433 437.063 44.1267 436.91 44.36C436.763 44.5867 436.69 44.84 436.69 45.12C436.69 45.48 436.806 45.7667 437.04 45.98C437.28 46.1933 437.603 46.3 438.01 46.3ZM443.206 47V42.87H441.606V42.05H443.206V41.1C443.206 40.6667 443.343 40.3267 443.616 40.08C443.889 39.8267 444.266 39.7 444.746 39.7H446.356V40.52H444.746C444.539 40.52 444.379 40.57 444.266 40.67C444.159 40.7633 444.106 40.9067 444.106 41.1V42.05H446.356V42.87H444.106V47H443.206ZM450.002 47.1C449.555 47.1 449.165 47.0233 448.832 46.87C448.505 46.71 448.252 46.4833 448.072 46.19C447.892 45.8967 447.802 45.5533 447.802 45.16C447.802 44.7267 447.919 44.3533 448.152 44.04C448.392 43.7267 448.769 43.4467 449.282 43.2L450.252 42.73C450.545 42.59 450.772 42.4067 450.932 42.18C451.092 41.9533 451.172 41.7033 451.172 41.43C451.172 41.11 451.065 40.8567 450.852 40.67C450.645 40.4833 450.362 40.39 450.002 40.39C449.642 40.39 449.355 40.4867 449.142 40.68C448.935 40.8667 448.832 41.12 448.832 41.44C448.832 41.7067 448.909 41.9533 449.062 42.18C449.222 42.4067 449.439 42.5867 449.712 42.72L450.682 43.18C451.215 43.4267 451.602 43.71 451.842 44.03C452.082 44.3433 452.202 44.72 452.202 45.16C452.202 45.7533 452.002 46.2267 451.602 46.58C451.209 46.9267 450.675 47.1 450.002 47.1ZM450.002 46.3C450.409 46.3 450.729 46.1967 450.962 45.99C451.202 45.7767 451.322 45.4933 451.322 45.14C451.322 44.8533 451.245 44.5933 451.092 44.36C450.939 44.1267 450.719 43.94 450.432 43.8L449.472 43.33C448.939 43.07 448.552 42.79 448.312 42.49C448.072 42.19 447.952 41.83 447.952 41.41C447.952 41.0367 448.035 40.7133 448.202 40.44C448.369 40.1667 448.605 39.9567 448.912 39.81C449.219 39.6633 449.582 39.59 450.002 39.59C450.422 39.59 450.785 39.6633 451.092 39.81C451.399 39.9567 451.635 40.1667 451.802 40.44C451.969 40.7133 452.052 41.0367 452.052 41.41C452.052 41.83 451.932 42.19 451.692 42.49C451.452 42.7833 451.055 43.0667 450.502 43.34L449.542 43.81C449.269 43.9433 449.055 44.1267 448.902 44.36C448.755 44.5867 448.682 44.84 448.682 45.12C448.682 45.48 448.799 45.7667 449.032 45.98C449.272 46.1933 449.595 46.3 450.002 46.3ZM455.198 47V42.87H453.598V42.05H455.198V41.1C455.198 40.6667 455.335 40.3267 455.608 40.08C455.881 39.8267 456.258 39.7 456.738 39.7H458.348V40.52H456.738C456.531 40.52 456.371 40.57 456.258 40.67C456.151 40.7633 456.098 40.9067 456.098 41.1V42.05H458.348V42.87H456.098V47H455.198ZM461.994 47.1C461.547 47.1 461.157 47.0233 460.824 46.87C460.497 46.71 460.244 46.4833 460.064 46.19C459.884 45.8967 459.794 45.5533 459.794 45.16C459.794 44.7267 459.911 44.3533 460.144 44.04C460.384 43.7267 460.761 43.4467 461.274 43.2L462.244 42.73C462.537 42.59 462.764 42.4067 462.924 42.18C463.084 41.9533 463.164 41.7033 463.164 41.43C463.164 41.11 463.057 40.8567 462.844 40.67C462.637 40.4833 462.354 40.39 461.994 40.39C461.634 40.39 461.347 40.4867 461.134 40.68C460.927 40.8667 460.824 41.12 460.824 41.44C460.824 41.7067 460.901 41.9533 461.054 42.18C461.214 42.4067 461.431 42.5867 461.704 42.72L462.674 43.18C463.207 43.4267 463.594 43.71 463.834 44.03C464.074 44.3433 464.194 44.72 464.194 45.16C464.194 45.7533 463.994 46.2267 463.594 46.58C463.201 46.9267 462.667 47.1 461.994 47.1ZM461.994 46.3C462.401 46.3 462.721 46.1967 462.954 45.99C463.194 45.7767 463.314 45.4933 463.314 45.14C463.314 44.8533 463.237 44.5933 463.084 44.36C462.931 44.1267 462.711 43.94 462.424 43.8L461.464 43.33C460.931 43.07 460.544 42.79 460.304 42.49C460.064 42.19 459.944 41.83 459.944 41.41C459.944 41.0367 460.027 40.7133 460.194 40.44C460.361 40.1667 460.597 39.9567 460.904 39.81C461.211 39.6633 461.574 39.59 461.994 39.59C462.414 39.59 462.777 39.6633 463.084 39.81C463.391 39.9567 463.627 40.1667 463.794 40.44C463.961 40.7133 464.044 41.0367 464.044 41.41C464.044 41.83 463.924 42.19 463.684 42.49C463.444 42.7833 463.047 43.0667 462.494 43.34L461.534 43.81C461.261 43.9433 461.047 44.1267 460.894 44.36C460.747 44.5867 460.674 44.84 460.674 45.12C460.674 45.48 460.791 45.7667 461.024 45.98C461.264 46.1933 461.587 46.3 461.994 46.3ZM467.19 47V42.87H465.59V42.05H467.19V41.1C467.19 40.6667 467.327 40.3267 467.6 40.08C467.874 39.8267 468.25 39.7 468.73 39.7H470.34V40.52H468.73C468.524 40.52 468.364 40.57 468.25 40.67C468.144 40.7633 468.09 40.9067 468.09 41.1V42.05H470.34V42.87H468.09V47H467.19ZM417.941 60V52.7H418.841V54.5V55.55H419.031L418.841 55.76C418.841 55.3267 418.971 54.9933 419.231 54.76C419.491 54.52 419.851 54.4 420.311 54.4C420.865 54.4 421.305 54.57 421.631 54.91C421.958 55.25 422.121 55.7133 422.121 56.3V60H421.221V56.4C421.221 56.0067 421.115 55.7033 420.901 55.49C420.695 55.27 420.411 55.16 420.051 55.16C419.678 55.16 419.381 55.2767 419.161 55.51C418.948 55.7433 418.841 56.0733 418.841 56.5V60H417.941ZM425.848 60.08C425.474 60.08 425.148 60.0233 424.868 59.91C424.594 59.79 424.374 59.6233 424.208 59.41C424.048 59.1967 423.951 58.9433 423.918 58.65H424.818C424.858 58.8433 424.964 58.9967 425.138 59.11C425.318 59.2233 425.554 59.28 425.848 59.28H426.268C426.621 59.28 426.884 59.21 427.058 59.07C427.231 58.9233 427.318 58.73 427.318 58.49C427.318 58.2567 427.238 58.0733 427.078 57.94C426.924 57.8 426.694 57.7067 426.388 57.66L425.648 57.54C425.108 57.4467 424.704 57.28 424.438 57.04C424.178 56.7933 424.048 56.4367 424.048 55.97C424.048 55.4767 424.204 55.0967 424.518 54.83C424.831 54.5567 425.301 54.42 425.928 54.42H426.308C426.834 54.42 427.258 54.5433 427.578 54.79C427.898 55.0367 428.091 55.37 428.158 55.79H427.258C427.218 55.6167 427.118 55.48 426.958 55.38C426.798 55.2733 426.581 55.22 426.308 55.22H425.928C425.588 55.22 425.338 55.2833 425.178 55.41C425.024 55.5367 424.948 55.7267 424.948 55.98C424.948 56.2067 425.014 56.3733 425.148 56.48C425.281 56.5867 425.491 56.6633 425.778 56.71L426.518 56.83C427.111 56.9233 427.541 57.0967 427.808 57.35C428.081 57.6033 428.218 57.97 428.218 58.45C428.218 58.9567 428.054 59.3567 427.728 59.65C427.408 59.9367 426.921 60.08 426.268 60.08H425.848ZM432.334 60.1C431.88 60.1 431.517 59.98 431.244 59.74C430.97 59.4933 430.834 59.16 430.834 58.74L431.014 58.95H430.834V60H429.934V52.7H430.834V54.3L430.814 55.55H431.014L430.834 55.76C430.834 55.3467 430.97 55.0167 431.244 54.77C431.524 54.5233 431.887 54.4 432.334 54.4C432.887 54.4 433.33 54.5833 433.664 54.95C433.997 55.3167 434.164 55.8167 434.164 56.45V58.06C434.164 58.6867 433.997 59.1833 433.664 59.55C433.33 59.9167 432.887 60.1 432.334 60.1ZM432.034 59.32C432.414 59.32 432.714 59.2067 432.934 58.98C433.154 58.7533 433.264 58.4267 433.264 58V56.5C433.264 56.0733 433.154 55.7467 432.934 55.52C432.714 55.2933 432.414 55.18 432.034 55.18C431.667 55.18 431.374 55.2967 431.154 55.53C430.94 55.7633 430.834 56.0867 430.834 56.5V58C430.834 58.4133 430.94 58.7367 431.154 58.97C431.374 59.2033 431.667 59.32 432.034 59.32ZM439.86 61.2C438.913 60.9667 438.176 60.5067 437.65 59.82C437.123 59.1333 436.86 58.2933 436.86 57.3V55.5C436.86 54.8467 436.98 54.2567 437.22 53.73C437.466 53.1967 437.813 52.7467 438.26 52.38C438.713 52.0133 439.246 51.7533 439.86 51.6V52.45C439.433 52.55 439.063 52.7433 438.75 53.03C438.436 53.31 438.193 53.66 438.02 54.08C437.846 54.5 437.76 54.9733 437.76 55.5V57.3C437.76 57.8133 437.843 58.28 438.01 58.7C438.183 59.12 438.426 59.47 438.74 59.75C439.06 60.0233 439.433 60.21 439.86 60.31V61.2ZM444.006 60.1C443.559 60.1 443.169 60.0133 442.836 59.84C442.509 59.66 442.256 59.41 442.076 59.09C441.896 58.7633 441.806 58.3833 441.806 57.95V54.75C441.806 54.31 441.896 53.93 442.076 53.61C442.256 53.29 442.509 53.0433 442.836 52.87C443.169 52.69 443.559 52.6 444.006 52.6C444.459 52.6 444.849 52.69 445.176 52.87C445.503 53.0433 445.756 53.29 445.936 53.61C446.116 53.93 446.206 54.31 446.206 54.75V57.95C446.206 58.3833 446.116 58.7633 445.936 59.09C445.756 59.41 445.499 59.66 445.166 59.84C444.839 60.0133 444.453 60.1 444.006 60.1ZM444.006 59.33C444.406 59.33 444.726 59.2033 444.966 58.95C445.213 58.69 445.336 58.3567 445.336 57.95V54.75C445.336 54.3433 445.213 54.0133 444.966 53.76C444.726 53.5 444.406 53.37 444.006 53.37C443.606 53.37 443.283 53.5 443.036 53.76C442.796 54.0133 442.676 54.3433 442.676 54.75V57.95C442.676 58.3567 442.796 58.69 443.036 58.95C443.283 59.2033 443.606 59.33 444.006 59.33ZM444.006 56.94C443.826 56.94 443.679 56.8833 443.566 56.77C443.459 56.6567 443.406 56.5067 443.406 56.32C443.406 56.14 443.459 55.9967 443.566 55.89C443.679 55.7767 443.826 55.72 444.006 55.72C444.186 55.72 444.329 55.7767 444.436 55.89C444.549 55.9967 444.606 56.14 444.606 56.32C444.606 56.5067 444.549 56.6567 444.436 56.77C444.329 56.8833 444.186 56.94 444.006 56.94ZM448.652 61.6L449.452 58.49H450.752L449.452 61.6H448.652ZM455.998 60.1C455.551 60.1 455.161 60.0133 454.828 59.84C454.501 59.66 454.248 59.41 454.068 59.09C453.888 58.7633 453.798 58.3833 453.798 57.95V54.75C453.798 54.31 453.888 53.93 454.068 53.61C454.248 53.29 454.501 53.0433 454.828 52.87C455.161 52.69 455.551 52.6 455.998 52.6C456.451 52.6 456.841 52.69 457.168 52.87C457.495 53.0433 457.748 53.29 457.928 53.61C458.108 53.93 458.198 54.31 458.198 54.75V57.95C458.198 58.3833 458.108 58.7633 457.928 59.09C457.748 59.41 457.491 59.66 457.158 59.84C456.831 60.0133 456.445 60.1 455.998 60.1ZM455.998 59.33C456.398 59.33 456.718 59.2033 456.958 58.95C457.205 58.69 457.328 58.3567 457.328 57.95V54.75C457.328 54.3433 457.205 54.0133 456.958 53.76C456.718 53.5 456.398 53.37 455.998 53.37C455.598 53.37 455.275 53.5 455.028 53.76C454.788 54.0133 454.668 54.3433 454.668 54.75V57.95C454.668 58.3567 454.788 58.69 455.028 58.95C455.275 59.2033 455.598 59.33 455.998 59.33ZM455.998 56.94C455.818 56.94 455.671 56.8833 455.558 56.77C455.451 56.6567 455.398 56.5067 455.398 56.32C455.398 56.14 455.451 55.9967 455.558 55.89C455.671 55.7767 455.818 55.72 455.998 55.72C456.178 55.72 456.321 55.7767 456.428 55.89C456.541 55.9967 456.598 56.14 456.598 56.32C456.598 56.5067 456.541 56.6567 456.428 56.77C456.321 56.8833 456.178 56.94 455.998 56.94ZM460.644 61.6L461.444 58.49H462.744L461.444 61.6H460.644ZM467.97 60.1C467.377 60.1 466.89 59.9467 466.51 59.64C466.13 59.3333 465.907 58.92 465.84 58.4H466.74C466.774 58.6867 466.897 58.91 467.11 59.07C467.324 59.2233 467.614 59.3 467.98 59.3C468.4 59.3 468.714 59.1867 468.92 58.96C469.134 58.7333 469.24 58.4133 469.24 58V57.29C469.24 56.8767 469.134 56.5567 468.92 56.33C468.714 56.1033 468.404 55.99 467.99 55.99C467.73 55.99 467.504 56.06 467.31 56.2C467.117 56.3333 466.977 56.5133 466.89 56.74H465.99L466.04 52.7H469.88V53.52H466.91L466.88 55.95H467.16L466.88 56.21C466.88 55.8967 467.004 55.65 467.25 55.47C467.504 55.29 467.84 55.2 468.26 55.2C468.854 55.1933 469.314 55.3767 469.64 55.75C469.974 56.1167 470.14 56.63 470.14 57.29V58C470.14 58.6467 469.95 59.16 469.57 59.54C469.19 59.9133 468.657 60.1 467.97 60.1ZM473.996 60.1C473.53 60.1 473.12 60.0033 472.766 59.81C472.42 59.61 472.15 59.3333 471.956 58.98C471.763 58.6267 471.666 58.2167 471.666 57.75C471.666 57.3833 471.716 57.0233 471.816 56.67C471.923 56.3167 472.08 55.9767 472.286 55.65L474.116 52.7H475.116L473.046 56.02L473.086 56.05C473.213 55.8633 473.386 55.72 473.606 55.62C473.826 55.52 474.073 55.47 474.346 55.47C474.746 55.47 475.093 55.5633 475.386 55.75C475.68 55.9367 475.906 56.2 476.066 56.54C476.226 56.88 476.306 57.2833 476.306 57.75C476.306 58.2167 476.21 58.6267 476.016 58.98C475.823 59.3333 475.553 59.61 475.206 59.81C474.866 60.0033 474.463 60.1 473.996 60.1ZM473.986 59.3C474.413 59.3 474.756 59.16 475.016 58.88C475.276 58.5933 475.406 58.2167 475.406 57.75C475.406 57.2833 475.276 56.91 475.016 56.63C474.756 56.3433 474.413 56.2 473.986 56.2C473.56 56.2 473.216 56.3433 472.956 56.63C472.696 56.91 472.566 57.2833 472.566 57.75C472.566 58.2167 472.696 58.5933 472.956 58.88C473.216 59.16 473.56 59.3 473.986 59.3ZM478.132 61.2V60.31C478.566 60.21 478.939 60.0233 479.252 59.75C479.566 59.47 479.806 59.12 479.972 58.7C480.146 58.28 480.232 57.8133 480.232 57.3V55.5C480.232 54.9733 480.146 54.5 479.972 54.08C479.799 53.66 479.556 53.31 479.242 53.03C478.929 52.7433 478.559 52.55 478.132 52.45V51.6C478.752 51.7533 479.286 52.0133 479.732 52.38C480.179 52.7467 480.522 53.1967 480.762 53.73C481.009 54.2567 481.132 54.8467 481.132 55.5V57.3C481.132 58.2933 480.869 59.1333 480.342 59.82C479.816 60.5067 479.079 60.9667 478.132 61.2Z" fill="#0F0F0F"/>
<rect width="100" height="100" transform="translate(500)" fill="#B0B0B0"/>
<path d="M529.844 47L530.214 45H529.364V44.35H530.334L530.694 42.35H529.714V41.7H530.814L531.184 39.7H531.884L531.514 41.7H533.114L533.484 39.7H534.184L533.814 41.7H534.664V42.35H533.694L533.334 44.35H534.314V45H533.214L532.844 47H532.144L532.514 45H530.914L530.544 47H529.844ZM531.034 44.35H532.634L532.994 42.35H531.394L531.034 44.35ZM538.33 47.1C537.876 47.1 537.513 46.98 537.24 46.74C536.966 46.4933 536.83 46.16 536.83 45.74L537.01 45.95H536.83V47H535.93V39.7H536.83V41.3L536.81 42.55H537.01L536.83 42.76C536.83 42.3467 536.966 42.0167 537.24 41.77C537.52 41.5233 537.883 41.4 538.33 41.4C538.883 41.4 539.326 41.5833 539.66 41.95C539.993 42.3167 540.16 42.8167 540.16 43.45V45.06C540.16 45.6867 539.993 46.1833 539.66 46.55C539.326 46.9167 538.883 47.1 538.33 47.1ZM538.03 46.32C538.41 46.32 538.71 46.2067 538.93 45.98C539.15 45.7533 539.26 45.4267 539.26 45V43.5C539.26 43.0733 539.15 42.7467 538.93 42.52C538.71 42.2933 538.41 42.18 538.03 42.18C537.663 42.18 537.37 42.2967 537.15 42.53C536.936 42.7633 536.83 43.0867 536.83 43.5V45C536.83 45.4133 536.936 45.7367 537.15 45.97C537.37 46.2033 537.663 46.32 538.03 46.32ZM544.006 47.1C543.559 47.1 543.169 47.0133 542.836 46.84C542.509 46.66 542.256 46.41 542.076 46.09C541.896 45.7633 541.806 45.3833 541.806 44.95V41.75C541.806 41.31 541.896 40.93 542.076 40.61C542.256 40.29 542.509 40.0433 542.836 39.87C543.169 39.69 543.559 39.6 544.006 39.6C544.459 39.6 544.849 39.69 545.176 39.87C545.503 40.0433 545.756 40.29 545.936 40.61C546.116 40.93 546.206 41.31 546.206 41.75V44.95C546.206 45.3833 546.116 45.7633 545.936 46.09C545.756 46.41 545.499 46.66 545.166 46.84C544.839 47.0133 544.453 47.1 544.006 47.1ZM544.006 46.33C544.406 46.33 544.726 46.2033 544.966 45.95C545.213 45.69 545.336 45.3567 545.336 44.95V41.75C545.336 41.3433 545.213 41.0133 544.966 40.76C544.726 40.5 544.406 40.37 544.006 40.37C543.606 40.37 543.283 40.5 543.036 40.76C542.796 41.0133 542.676 41.3433 542.676 41.75V44.95C542.676 45.3567 542.796 45.69 543.036 45.95C543.283 46.2033 543.606 46.33 544.006 46.33ZM544.006 43.94C543.826 43.94 543.679 43.8833 543.566 43.77C543.459 43.6567 543.406 43.5067 543.406 43.32C543.406 43.14 543.459 42.9967 543.566 42.89C543.679 42.7767 543.826 42.72 544.006 42.72C544.186 42.72 544.329 42.7767 544.436 42.89C544.549 42.9967 544.606 43.14 544.606 43.32C544.606 43.5067 544.549 43.6567 544.436 43.77C544.329 43.8833 544.186 43.94 544.006 43.94ZM550.322 47.1C549.869 47.1 549.505 46.98 549.232 46.74C548.959 46.4933 548.822 46.16 548.822 45.74L549.002 45.95H548.822V47H547.922V39.7H548.822V41.3L548.802 42.55H549.002L548.822 42.76C548.822 42.3467 548.959 42.0167 549.232 41.77C549.512 41.5233 549.875 41.4 550.322 41.4C550.875 41.4 551.319 41.5833 551.652 41.95C551.985 42.3167 552.152 42.8167 552.152 43.45V45.06C552.152 45.6867 551.985 46.1833 551.652 46.55C551.319 46.9167 550.875 47.1 550.322 47.1ZM550.022 46.32C550.402 46.32 550.702 46.2067 550.922 45.98C551.142 45.7533 551.252 45.4267 551.252 45V43.5C551.252 43.0733 551.142 42.7467 550.922 42.52C550.702 42.2933 550.402 42.18 550.022 42.18C549.655 42.18 549.362 42.2967 549.142 42.53C548.929 42.7633 548.822 43.0867 548.822 43.5V45C548.822 45.4133 548.929 45.7367 549.142 45.97C549.362 46.2033 549.655 46.32 550.022 46.32ZM555.998 47.1C555.551 47.1 555.161 47.0133 554.828 46.84C554.501 46.66 554.248 46.41 554.068 46.09C553.888 45.7633 553.798 45.3833 553.798 44.95V41.75C553.798 41.31 553.888 40.93 554.068 40.61C554.248 40.29 554.501 40.0433 554.828 39.87C555.161 39.69 555.551 39.6 555.998 39.6C556.451 39.6 556.841 39.69 557.168 39.87C557.495 40.0433 557.748 40.29 557.928 40.61C558.108 40.93 558.198 41.31 558.198 41.75V44.95C558.198 45.3833 558.108 45.7633 557.928 46.09C557.748 46.41 557.491 46.66 557.158 46.84C556.831 47.0133 556.445 47.1 555.998 47.1ZM555.998 46.33C556.398 46.33 556.718 46.2033 556.958 45.95C557.205 45.69 557.328 45.3567 557.328 44.95V41.75C557.328 41.3433 557.205 41.0133 556.958 40.76C556.718 40.5 556.398 40.37 555.998 40.37C555.598 40.37 555.275 40.5 555.028 40.76C554.788 41.0133 554.668 41.3433 554.668 41.75V44.95C554.668 45.3567 554.788 45.69 555.028 45.95C555.275 46.2033 555.598 46.33 555.998 46.33ZM555.998 43.94C555.818 43.94 555.671 43.8833 555.558 43.77C555.451 43.6567 555.398 43.5067 555.398 43.32C555.398 43.14 555.451 42.9967 555.558 42.89C555.671 42.7767 555.818 42.72 555.998 42.72C556.178 42.72 556.321 42.7767 556.428 42.89C556.541 42.9967 556.598 43.14 556.598 43.32C556.598 43.5067 556.541 43.6567 556.428 43.77C556.321 43.8833 556.178 43.94 555.998 43.94ZM562.314 47.1C561.861 47.1 561.497 46.98 561.224 46.74C560.951 46.4933 560.814 46.16 560.814 45.74L560.994 45.95H560.814V47H559.914V39.7H560.814V41.3L560.794 42.55H560.994L560.814 42.76C560.814 42.3467 560.951 42.0167 561.224 41.77C561.504 41.5233 561.867 41.4 562.314 41.4C562.867 41.4 563.311 41.5833 563.644 41.95C563.977 42.3167 564.144 42.8167 564.144 43.45V45.06C564.144 45.6867 563.977 46.1833 563.644 46.55C563.311 46.9167 562.867 47.1 562.314 47.1ZM562.014 46.32C562.394 46.32 562.694 46.2067 562.914 45.98C563.134 45.7533 563.244 45.4267 563.244 45V43.5C563.244 43.0733 563.134 42.7467 562.914 42.52C562.694 42.2933 562.394 42.18 562.014 42.18C561.647 42.18 561.354 42.2967 561.134 42.53C560.921 42.7633 560.814 43.0867 560.814 43.5V45C560.814 45.4133 560.921 45.7367 561.134 45.97C561.354 46.2033 561.647 46.32 562.014 46.32ZM567.99 47.1C567.544 47.1 567.154 47.0133 566.82 46.84C566.494 46.66 566.24 46.41 566.06 46.09C565.88 45.7633 565.79 45.3833 565.79 44.95V41.75C565.79 41.31 565.88 40.93 566.06 40.61C566.24 40.29 566.494 40.0433 566.82 39.87C567.154 39.69 567.544 39.6 567.99 39.6C568.444 39.6 568.834 39.69 569.16 39.87C569.487 40.0433 569.74 40.29 569.92 40.61C570.1 40.93 570.19 41.31 570.19 41.75V44.95C570.19 45.3833 570.1 45.7633 569.92 46.09C569.74 46.41 569.484 46.66 569.15 46.84C568.824 47.0133 568.437 47.1 567.99 47.1ZM567.99 46.33C568.39 46.33 568.71 46.2033 568.95 45.95C569.197 45.69 569.32 45.3567 569.32 44.95V41.75C569.32 41.3433 569.197 41.0133 568.95 40.76C568.71 40.5 568.39 40.37 567.99 40.37C567.59 40.37 567.267 40.5 567.02 40.76C566.78 41.0133 566.66 41.3433 566.66 41.75V44.95C566.66 45.3567 566.78 45.69 567.02 45.95C567.267 46.2033 567.59 46.33 567.99 46.33ZM567.99 43.94C567.81 43.94 567.664 43.8833 567.55 43.77C567.444 43.6567 567.39 43.5067 567.39 43.32C567.39 43.14 567.444 42.9967 567.55 42.89C567.664 42.7767 567.81 42.72 567.99 42.72C568.17 42.72 568.314 42.7767 568.42 42.89C568.534 42.9967 568.59 43.14 568.59 43.32C568.59 43.5067 568.534 43.6567 568.42 43.77C568.314 43.8833 568.17 43.94 567.99 43.94ZM517.941 60V52.7H518.841V54.5V55.55H519.031L518.841 55.76C518.841 55.3267 518.971 54.9933 519.231 54.76C519.491 54.52 519.851 54.4 520.311 54.4C520.865 54.4 521.305 54.57 521.631 54.91C521.958 55.25 522.121 55.7133 522.121 56.3V60H521.221V56.4C521.221 56.0067 521.115 55.7033 520.901 55.49C520.695 55.27 520.411 55.16 520.051 55.16C519.678 55.16 519.381 55.2767 519.161 55.51C518.948 55.7433 518.841 56.0733 518.841 56.5V60H517.941ZM525.848 60.08C525.474 60.08 525.148 60.0233 524.868 59.91C524.594 59.79 524.374 59.6233 524.208 59.41C524.048 59.1967 523.951 58.9433 523.918 58.65H524.818C524.858 58.8433 524.964 58.9967 525.138 59.11C525.318 59.2233 525.554 59.28 525.848 59.28H526.268C526.621 59.28 526.884 59.21 527.058 59.07C527.231 58.9233 527.318 58.73 527.318 58.49C527.318 58.2567 527.238 58.0733 527.078 57.94C526.924 57.8 526.694 57.7067 526.388 57.66L525.648 57.54C525.108 57.4467 524.704 57.28 524.438 57.04C524.178 56.7933 524.048 56.4367 524.048 55.97C524.048 55.4767 524.204 55.0967 524.518 54.83C524.831 54.5567 525.301 54.42 525.928 54.42H526.308C526.834 54.42 527.258 54.5433 527.578 54.79C527.898 55.0367 528.091 55.37 528.158 55.79H527.258C527.218 55.6167 527.118 55.48 526.958 55.38C526.798 55.2733 526.581 55.22 526.308 55.22H525.928C525.588 55.22 525.338 55.2833 525.178 55.41C525.024 55.5367 524.948 55.7267 524.948 55.98C524.948 56.2067 525.014 56.3733 525.148 56.48C525.281 56.5867 525.491 56.6633 525.778 56.71L526.518 56.83C527.111 56.9233 527.541 57.0967 527.808 57.35C528.081 57.6033 528.218 57.97 528.218 58.45C528.218 58.9567 528.054 59.3567 527.728 59.65C527.408 59.9367 526.921 60.08 526.268 60.08H525.848ZM532.334 60.1C531.88 60.1 531.517 59.98 531.244 59.74C530.97 59.4933 530.834 59.16 530.834 58.74L531.014 58.95H530.834V60H529.934V52.7H530.834V54.3L530.814 55.55H531.014L530.834 55.76C530.834 55.3467 530.97 55.0167 531.244 54.77C531.524 54.5233 531.887 54.4 532.334 54.4C532.887 54.4 533.33 54.5833 533.664 54.95C533.997 55.3167 534.164 55.8167 534.164 56.45V58.06C534.164 58.6867 533.997 59.1833 533.664 59.55C533.33 59.9167 532.887 60.1 532.334 60.1ZM532.034 59.32C532.414 59.32 532.714 59.2067 532.934 58.98C533.154 58.7533 533.264 58.4267 533.264 58V56.5C533.264 56.0733 533.154 55.7467 532.934 55.52C532.714 55.2933 532.414 55.18 532.034 55.18C531.667 55.18 531.374 55.2967 531.154 55.53C530.94 55.7633 530.834 56.0867 530.834 56.5V58C530.834 58.4133 530.94 58.7367 531.154 58.97C531.374 59.2033 531.667 59.32 532.034 59.32ZM539.86 61.2C538.913 60.9667 538.176 60.5067 537.65 59.82C537.123 59.1333 536.86 58.2933 536.86 57.3V55.5C536.86 54.8467 536.98 54.2567 537.22 53.73C537.466 53.1967 537.813 52.7467 538.26 52.38C538.713 52.0133 539.246 51.7533 539.86 51.6V52.45C539.433 52.55 539.063 52.7433 538.75 53.03C538.436 53.31 538.193 53.66 538.02 54.08C537.846 54.5 537.76 54.9733 537.76 55.5V57.3C537.76 57.8133 537.843 58.28 538.01 58.7C538.183 59.12 538.426 59.47 538.74 59.75C539.06 60.0233 539.433 60.21 539.86 60.31V61.2ZM544.006 60.1C543.559 60.1 543.169 60.0133 542.836 59.84C542.509 59.66 542.256 59.41 542.076 59.09C541.896 58.7633 541.806 58.3833 541.806 57.95V54.75C541.806 54.31 541.896 53.93 542.076 53.61C542.256 53.29 542.509 53.0433 542.836 52.87C543.169 52.69 543.559 52.6 544.006 52.6C544.459 52.6 544.849 52.69 545.176 52.87C545.503 53.0433 545.756 53.29 545.936 53.61C546.116 53.93 546.206 54.31 546.206 54.75V57.95C546.206 58.3833 546.116 58.7633 545.936 59.09C545.756 59.41 545.499 59.66 545.166 59.84C544.839 60.0133 544.453 60.1 544.006 60.1ZM544.006 59.33C544.406 59.33 544.726 59.2033 544.966 58.95C545.213 58.69 545.336 58.3567 545.336 57.95V54.75C545.336 54.3433 545.213 54.0133 544.966 53.76C544.726 53.5 544.406 53.37 544.006 53.37C543.606 53.37 543.283 53.5 543.036 53.76C542.796 54.0133 542.676 54.3433 542.676 54.75V57.95C542.676 58.3567 542.796 58.69 543.036 58.95C543.283 59.2033 543.606 59.33 544.006 59.33ZM544.006 56.94C543.826 56.94 543.679 56.8833 543.566 56.77C543.459 56.6567 543.406 56.5067 543.406 56.32C543.406 56.14 543.459 55.9967 543.566 55.89C543.679 55.7767 543.826 55.72 544.006 55.72C544.186 55.72 544.329 55.7767 544.436 55.89C544.549 55.9967 544.606 56.14 544.606 56.32C544.606 56.5067 544.549 56.6567 544.436 56.77C544.329 56.8833 544.186 56.94 544.006 56.94ZM548.652 61.6L549.452 58.49H550.752L549.452 61.6H548.652ZM555.998 60.1C555.551 60.1 555.161 60.0133 554.828 59.84C554.501 59.66 554.248 59.41 554.068 59.09C553.888 58.7633 553.798 58.3833 553.798 57.95V54.75C553.798 54.31 553.888 53.93 554.068 53.61C554.248 53.29 554.501 53.0433 554.828 52.87C555.161 52.69 555.551 52.6 555.998 52.6C556.451 52.6 556.841 52.69 557.168 52.87C557.495 53.0433 557.748 53.29 557.928 53.61C558.108 53.93 558.198 54.31 558.198 54.75V57.95C558.198 58.3833 558.108 58.7633 557.928 59.09C557.748 59.41 557.491 59.66 557.158 59.84C556.831 60.0133 556.445 60.1 555.998 60.1ZM555.998 59.33C556.398 59.33 556.718 59.2033 556.958 58.95C557.205 58.69 557.328 58.3567 557.328 57.95V54.75C557.328 54.3433 557.205 54.0133 556.958 53.76C556.718 53.5 556.398 53.37 555.998 53.37C555.598 53.37 555.275 53.5 555.028 53.76C554.788 54.0133 554.668 54.3433 554.668 54.75V57.95C554.668 58.3567 554.788 58.69 555.028 58.95C555.275 59.2033 555.598 59.33 555.998 59.33ZM555.998 56.94C555.818 56.94 555.671 56.8833 555.558 56.77C555.451 56.6567 555.398 56.5067 555.398 56.32C555.398 56.14 555.451 55.9967 555.558 55.89C555.671 55.7767 555.818 55.72 555.998 55.72C556.178 55.72 556.321 55.7767 556.428 55.89C556.541 55.9967 556.598 56.14 556.598 56.32C556.598 56.5067 556.541 56.6567 556.428 56.77C556.321 56.8833 556.178 56.94 555.998 56.94ZM560.644 61.6L561.444 58.49H562.744L561.444 61.6H560.644ZM568 60.1C567.534 60.1 567.124 60.0033 566.77 59.81C566.424 59.61 566.154 59.3333 565.96 58.98C565.767 58.6267 565.67 58.2167 565.67 57.75C565.67 57.3833 565.72 57.0233 565.82 56.67C565.927 56.3167 566.084 55.9767 566.29 55.65L568.12 52.7H569.12L567.05 56.02L567.09 56.05C567.217 55.8633 567.39 55.72 567.61 55.62C567.83 55.52 568.077 55.47 568.35 55.47C568.75 55.47 569.097 55.5633 569.39 55.75C569.684 55.9367 569.91 56.2 570.07 56.54C570.23 56.88 570.31 57.2833 570.31 57.75C570.31 58.2167 570.214 58.6267 570.02 58.98C569.827 59.3333 569.557 59.61 569.21 59.81C568.87 60.0033 568.467 60.1 568 60.1ZM567.99 59.3C568.417 59.3 568.76 59.16 569.02 58.88C569.28 58.5933 569.41 58.2167 569.41 57.75C569.41 57.2833 569.28 56.91 569.02 56.63C568.76 56.3433 568.417 56.2 567.99 56.2C567.564 56.2 567.22 56.3433 566.96 56.63C566.7 56.91 566.57 57.2833 566.57 57.75C566.57 58.2167 566.7 58.5933 566.96 58.88C567.22 59.16 567.564 59.3 567.99 59.3ZM572.856 60L574.926 56.68L574.886 56.65C574.76 56.8367 574.586 56.98 574.366 57.08C574.146 57.18 573.9 57.23 573.626 57.23C573.233 57.23 572.886 57.1367 572.586 56.95C572.293 56.7633 572.066 56.5 571.906 56.16C571.746 55.8133 571.666 55.41 571.666 54.95C571.666 54.4767 571.763 54.0667 571.956 53.72C572.15 53.3667 572.42 53.0933 572.766 52.9C573.113 52.7 573.516 52.6 573.976 52.6C574.443 52.6 574.85 52.7 575.196 52.9C575.55 53.0933 575.823 53.3667 576.016 53.72C576.21 54.0667 576.306 54.4767 576.306 54.95C576.306 55.3167 576.253 55.6767 576.146 56.03C576.046 56.3833 575.893 56.7233 575.686 57.05L573.856 60H572.856ZM573.986 56.5C574.413 56.5 574.756 56.36 575.016 56.08C575.276 55.7933 575.406 55.4167 575.406 54.95C575.406 54.4833 575.276 54.11 575.016 53.83C574.756 53.5433 574.413 53.4 573.986 53.4C573.56 53.4 573.216 53.5433 572.956 53.83C572.696 54.11 572.566 54.4833 572.566 54.95C572.566 55.4167 572.696 55.7933 572.956 56.08C573.216 56.36 573.56 56.5 573.986 56.5ZM578.132 61.2V60.31C578.566 60.21 578.939 60.0233 579.252 59.75C579.566 59.47 579.806 59.12 579.972 58.7C580.146 58.28 580.232 57.8133 580.232 57.3V55.5C580.232 54.9733 580.146 54.5 579.972 54.08C579.799 53.66 579.556 53.31 579.242 53.03C578.929 52.7433 578.559 52.55 578.132 52.45V51.6C578.752 51.7533 579.286 52.0133 579.732 52.38C580.179 52.7467 580.522 53.1967 580.762 53.73C581.009 54.2567 581.132 54.8467 581.132 55.5V57.3C581.132 58.2933 580.869 59.1333 580.342 59.82C579.816 60.5067 579.079 60.9667 578.132 61.2Z" fill="#0F0F0F"/>
<rect width="100" height="100" transform="translate(600)" fill="#CFCFCF"/>
<path d="M629.844 47L630.214 45H629.364V44.35H630.334L630.694 42.35H629.714V41.7H630.814L631.184 39.7H631.884L631.514 41.7H633.114L633.484 39.7H634.184L633.814 41.7H634.664V42.35H633.694L633.334 44.35H634.314V45H633.214L632.844 47H632.144L632.514 45H630.914L630.544 47H629.844ZM631.034 44.35H632.634L632.994 42.35H631.394L631.034 44.35ZM638.05 47.1C637.61 47.1 637.223 47.0167 636.89 46.85C636.563 46.6833 636.31 46.4433 636.13 46.13C635.95 45.81 635.86 45.4333 635.86 45V43.5C635.86 43.06 635.95 42.6833 636.13 42.37C636.31 42.0567 636.563 41.8167 636.89 41.65C637.223 41.4833 637.61 41.4 638.05 41.4C638.683 41.4 639.193 41.57 639.58 41.91C639.966 42.25 640.17 42.7133 640.19 43.3H639.29C639.27 42.9467 639.15 42.6767 638.93 42.49C638.716 42.2967 638.423 42.2 638.05 42.2C637.656 42.2 637.343 42.3133 637.11 42.54C636.876 42.76 636.76 43.0767 636.76 43.49V45C636.76 45.4133 636.876 45.7333 637.11 45.96C637.343 46.1867 637.656 46.3 638.05 46.3C638.423 46.3 638.716 46.2033 638.93 46.01C639.15 45.8167 639.27 45.5467 639.29 45.2H640.19C640.17 45.7867 639.966 46.25 639.58 46.59C639.193 46.93 638.683 47.1 638.05 47.1ZM643.206 47V42.87H641.606V42.05H643.206V41.1C643.206 40.6667 643.343 40.3267 643.616 40.08C643.889 39.8267 644.266 39.7 644.746 39.7H646.356V40.52H644.746C644.539 40.52 644.379 40.57 644.266 40.67C644.159 40.7633 644.106 40.9067 644.106 41.1V42.05H646.356V42.87H644.106V47H643.206ZM650.042 47.1C649.602 47.1 649.215 47.0167 648.882 46.85C648.555 46.6833 648.302 46.4433 648.122 46.13C647.942 45.81 647.852 45.4333 647.852 45V43.5C647.852 43.06 647.942 42.6833 648.122 42.37C648.302 42.0567 648.555 41.8167 648.882 41.65C649.215 41.4833 649.602 41.4 650.042 41.4C650.675 41.4 651.185 41.57 651.572 41.91C651.959 42.25 652.162 42.7133 652.182 43.3H651.282C651.262 42.9467 651.142 42.6767 650.922 42.49C650.709 42.2967 650.415 42.2 650.042 42.2C649.649 42.2 649.335 42.3133 649.102 42.54C648.869 42.76 648.752 43.0767 648.752 43.49V45C648.752 45.4133 648.869 45.7333 649.102 45.96C649.335 46.1867 649.649 46.3 650.042 46.3C650.415 46.3 650.709 46.2033 650.922 46.01C651.142 45.8167 651.262 45.5467 651.282 45.2H652.182C652.162 45.7867 651.959 46.25 651.572 46.59C651.185 46.93 650.675 47.1 650.042 47.1ZM655.198 47V42.87H653.598V42.05H655.198V41.1C655.198 40.6667 655.335 40.3267 655.608 40.08C655.881 39.8267 656.258 39.7 656.738 39.7H658.348V40.52H656.738C656.531 40.52 656.371 40.57 656.258 40.67C656.151 40.7633 656.098 40.9067 656.098 41.1V42.05H658.348V42.87H656.098V47H655.198ZM662.034 47.1C661.594 47.1 661.207 47.0167 660.874 46.85C660.547 46.6833 660.294 46.4433 660.114 46.13C659.934 45.81 659.844 45.4333 659.844 45V43.5C659.844 43.06 659.934 42.6833 660.114 42.37C660.294 42.0567 660.547 41.8167 660.874 41.65C661.207 41.4833 661.594 41.4 662.034 41.4C662.667 41.4 663.177 41.57 663.564 41.91C663.951 42.25 664.154 42.7133 664.174 43.3H663.274C663.254 42.9467 663.134 42.6767 662.914 42.49C662.701 42.2967 662.407 42.2 662.034 42.2C661.641 42.2 661.327 42.3133 661.094 42.54C660.861 42.76 660.744 43.0767 660.744 43.49V45C660.744 45.4133 660.861 45.7333 661.094 45.96C661.327 46.1867 661.641 46.3 662.034 46.3C662.407 46.3 662.701 46.2033 662.914 46.01C663.134 45.8167 663.254 45.5467 663.274 45.2H664.174C664.154 45.7867 663.951 46.25 663.564 46.59C663.177 46.93 662.667 47.1 662.034 47.1ZM667.19 47V42.87H665.59V42.05H667.19V41.1C667.19 40.6667 667.327 40.3267 667.6 40.08C667.874 39.8267 668.25 39.7 668.73 39.7H670.34V40.52H668.73C668.524 40.52 668.364 40.57 668.25 40.67C668.144 40.7633 668.09 40.9067 668.09 41.1V42.05H670.34V42.87H668.09V47H667.19ZM617.941 60V52.7H618.841V54.5V55.55H619.031L618.841 55.76C618.841 55.3267 618.971 54.9933 619.231 54.76C619.491 54.52 619.851 54.4 620.311 54.4C620.865 54.4 621.305 54.57 621.631 54.91C621.958 55.25 622.121 55.7133 622.121 56.3V60H621.221V56.4C621.221 56.0067 621.115 55.7033 620.901 55.49C620.695 55.27 620.411 55.16 620.051 55.16C619.678 55.16 619.381 55.2767 619.161 55.51C618.948 55.7433 618.841 56.0733 618.841 56.5V60H617.941ZM625.848 60.08C625.474 60.08 625.148 60.0233 624.868 59.91C624.594 59.79 624.374 59.6233 624.208 59.41C624.048 59.1967 623.951 58.9433 623.918 58.65H624.818C624.858 58.8433 624.964 58.9967 625.138 59.11C625.318 59.2233 625.554 59.28 625.848 59.28H626.268C626.621 59.28 626.884 59.21 627.058 59.07C627.231 58.9233 627.318 58.73 627.318 58.49C627.318 58.2567 627.238 58.0733 627.078 57.94C626.924 57.8 626.694 57.7067 626.388 57.66L625.648 57.54C625.108 57.4467 624.704 57.28 624.438 57.04C624.178 56.7933 624.048 56.4367 624.048 55.97C624.048 55.4767 624.204 55.0967 624.518 54.83C624.831 54.5567 625.301 54.42 625.928 54.42H626.308C626.834 54.42 627.258 54.5433 627.578 54.79C627.898 55.0367 628.091 55.37 628.158 55.79H627.258C627.218 55.6167 627.118 55.48 626.958 55.38C626.798 55.2733 626.581 55.22 626.308 55.22H625.928C625.588 55.22 625.338 55.2833 625.178 55.41C625.024 55.5367 624.948 55.7267 624.948 55.98C624.948 56.2067 625.014 56.3733 625.148 56.48C625.281 56.5867 625.491 56.6633 625.778 56.71L626.518 56.83C627.111 56.9233 627.541 57.0967 627.808 57.35C628.081 57.6033 628.218 57.97 628.218 58.45C628.218 58.9567 628.054 59.3567 627.728 59.65C627.408 59.9367 626.921 60.08 626.268 60.08H625.848ZM632.334 60.1C631.88 60.1 631.517 59.98 631.244 59.74C630.97 59.4933 630.834 59.16 630.834 58.74L631.014 58.95H630.834V60H629.934V52.7H630.834V54.3L630.814 55.55H631.014L630.834 55.76C630.834 55.3467 630.97 55.0167 631.244 54.77C631.524 54.5233 631.887 54.4 632.334 54.4C632.887 54.4 633.33 54.5833 633.664 54.95C633.997 55.3167 634.164 55.8167 634.164 56.45V58.06C634.164 58.6867 633.997 59.1833 633.664 59.55C633.33 59.9167 632.887 60.1 632.334 60.1ZM632.034 59.32C632.414 59.32 632.714 59.2067 632.934 58.98C633.154 58.7533 633.264 58.4267 633.264 58V56.5C633.264 56.0733 633.154 55.7467 632.934 55.52C632.714 55.2933 632.414 55.18 632.034 55.18C631.667 55.18 631.374 55.2967 631.154 55.53C630.94 55.7633 630.834 56.0867 630.834 56.5V58C630.834 58.4133 630.94 58.7367 631.154 58.97C631.374 59.2033 631.667 59.32 632.034 59.32ZM639.86 61.2C638.913 60.9667 638.176 60.5067 637.65 59.82C637.123 59.1333 636.86 58.2933 636.86 57.3V55.5C636.86 54.8467 636.98 54.2567 637.22 53.73C637.466 53.1967 637.813 52.7467 638.26 52.38C638.713 52.0133 639.246 51.7533 639.86 51.6V52.45C639.433 52.55 639.063 52.7433 638.75 53.03C638.436 53.31 638.193 53.66 638.02 54.08C637.846 54.5 637.76 54.9733 637.76 55.5V57.3C637.76 57.8133 637.843 58.28 638.01 58.7C638.183 59.12 638.426 59.47 638.74 59.75C639.06 60.0233 639.433 60.21 639.86 60.31V61.2ZM644.006 60.1C643.559 60.1 643.169 60.0133 642.836 59.84C642.509 59.66 642.256 59.41 642.076 59.09C641.896 58.7633 641.806 58.3833 641.806 57.95V54.75C641.806 54.31 641.896 53.93 642.076 53.61C642.256 53.29 642.509 53.0433 642.836 52.87C643.169 52.69 643.559 52.6 644.006 52.6C644.459 52.6 644.849 52.69 645.176 52.87C645.503 53.0433 645.756 53.29 645.936 53.61C646.116 53.93 646.206 54.31 646.206 54.75V57.95C646.206 58.3833 646.116 58.7633 645.936 59.09C645.756 59.41 645.499 59.66 645.166 59.84C644.839 60.0133 644.453 60.1 644.006 60.1ZM644.006 59.33C644.406 59.33 644.726 59.2033 644.966 58.95C645.213 58.69 645.336 58.3567 645.336 57.95V54.75C645.336 54.3433 645.213 54.0133 644.966 53.76C644.726 53.5 644.406 53.37 644.006 53.37C643.606 53.37 643.283 53.5 643.036 53.76C642.796 54.0133 642.676 54.3433 642.676 54.75V57.95C642.676 58.3567 642.796 58.69 643.036 58.95C643.283 59.2033 643.606 59.33 644.006 59.33ZM644.006 56.94C643.826 56.94 643.679 56.8833 643.566 56.77C643.459 56.6567 643.406 56.5067 643.406 56.32C643.406 56.14 643.459 55.9967 643.566 55.89C643.679 55.7767 643.826 55.72 644.006 55.72C644.186 55.72 644.329 55.7767 644.436 55.89C644.549 55.9967 644.606 56.14 644.606 56.32C644.606 56.5067 644.549 56.6567 644.436 56.77C644.329 56.8833 644.186 56.94 644.006 56.94ZM648.652 61.6L649.452 58.49H650.752L649.452 61.6H648.652ZM655.998 60.1C655.551 60.1 655.161 60.0133 654.828 59.84C654.501 59.66 654.248 59.41 654.068 59.09C653.888 58.7633 653.798 58.3833 653.798 57.95V54.75C653.798 54.31 653.888 53.93 654.068 53.61C654.248 53.29 654.501 53.0433 654.828 52.87C655.161 52.69 655.551 52.6 655.998 52.6C656.451 52.6 656.841 52.69 657.168 52.87C657.495 53.0433 657.748 53.29 657.928 53.61C658.108 53.93 658.198 54.31 658.198 54.75V57.95C658.198 58.3833 658.108 58.7633 657.928 59.09C657.748 59.41 657.491 59.66 657.158 59.84C656.831 60.0133 656.445 60.1 655.998 60.1ZM655.998 59.33C656.398 59.33 656.718 59.2033 656.958 58.95C657.205 58.69 657.328 58.3567 657.328 57.95V54.75C657.328 54.3433 657.205 54.0133 656.958 53.76C656.718 53.5 656.398 53.37 655.998 53.37C655.598 53.37 655.275 53.5 655.028 53.76C654.788 54.0133 654.668 54.3433 654.668 54.75V57.95C654.668 58.3567 654.788 58.69 655.028 58.95C655.275 59.2033 655.598 59.33 655.998 59.33ZM655.998 56.94C655.818 56.94 655.671 56.8833 655.558 56.77C655.451 56.6567 655.398 56.5067 655.398 56.32C655.398 56.14 655.451 55.9967 655.558 55.89C655.671 55.7767 655.818 55.72 655.998 55.72C656.178 55.72 656.321 55.7767 656.428 55.89C656.541 55.9967 656.598 56.14 656.598 56.32C656.598 56.5067 656.541 56.6567 656.428 56.77C656.321 56.8833 656.178 56.94 655.998 56.94ZM660.644 61.6L661.444 58.49H662.744L661.444 61.6H660.644ZM667.99 60.1C667.544 60.1 667.154 60.0233 666.82 59.87C666.494 59.71 666.24 59.4833 666.06 59.19C665.88 58.8967 665.79 58.5533 665.79 58.16C665.79 57.7267 665.907 57.3533 666.14 57.04C666.38 56.7267 666.757 56.4467 667.27 56.2L668.24 55.73C668.534 55.59 668.76 55.4067 668.92 55.18C669.08 54.9533 669.16 54.7033 669.16 54.43C669.16 54.11 669.054 53.8567 668.84 53.67C668.634 53.4833 668.35 53.39 667.99 53.39C667.63 53.39 667.344 53.4867 667.13 53.68C666.924 53.8667 666.82 54.12 666.82 54.44C666.82 54.7067 666.897 54.9533 667.05 55.18C667.21 55.4067 667.427 55.5867 667.7 55.72L668.67 56.18C669.204 56.4267 669.59 56.71 669.83 57.03C670.07 57.3433 670.19 57.72 670.19 58.16C670.19 58.7533 669.99 59.2267 669.59 59.58C669.197 59.9267 668.664 60.1 667.99 60.1ZM667.99 59.3C668.397 59.3 668.717 59.1967 668.95 58.99C669.19 58.7767 669.31 58.4933 669.31 58.14C669.31 57.8533 669.234 57.5933 669.08 57.36C668.927 57.1267 668.707 56.94 668.42 56.8L667.46 56.33C666.927 56.07 666.54 55.79 666.3 55.49C666.06 55.19 665.94 54.83 665.94 54.41C665.94 54.0367 666.024 53.7133 666.19 53.44C666.357 53.1667 666.594 52.9567 666.9 52.81C667.207 52.6633 667.57 52.59 667.99 52.59C668.41 52.59 668.774 52.6633 669.08 52.81C669.387 52.9567 669.624 53.1667 669.79 53.44C669.957 53.7133 670.04 54.0367 670.04 54.41C670.04 54.83 669.92 55.19 669.68 55.49C669.44 55.7833 669.044 56.0667 668.49 56.34L667.53 56.81C667.257 56.9433 667.044 57.1267 666.89 57.36C666.744 57.5867 666.67 57.84 666.67 58.12C666.67 58.48 666.787 58.7667 667.02 58.98C667.26 59.1933 667.584 59.3 667.99 59.3ZM671.886 60V59.18H673.866V53.45L671.886 54.93V53.93L673.536 52.7H674.766V59.18H676.386V60H671.886ZM678.132 61.2V60.31C678.566 60.21 678.939 60.0233 679.252 59.75C679.566 59.47 679.806 59.12 679.972 58.7C680.146 58.28 680.232 57.8133 680.232 57.3V55.5C680.232 54.9733 680.146 54.5 679.972 54.08C679.799 53.66 679.556 53.31 679.242 53.03C678.929 52.7433 678.559 52.55 678.132 52.45V51.6C678.752 51.7533 679.286 52.0133 679.732 52.38C680.179 52.7467 680.522 53.1967 680.762 53.73C681.009 54.2567 681.132 54.8467 681.132 55.5V57.3C681.132 58.2933 680.869 59.1333 680.342 59.82C679.816 60.5067 679.079 60.9667 678.132 61.2Z" fill="#0F0F0F"/>
<rect width="100" height="100" transform="translate(700)" fill="#F0F0F0"/>
<path d="M729.844 47L730.214 45H729.364V44.35H730.334L730.694 42.35H729.714V41.7H730.814L731.184 39.7H731.884L731.514 41.7H733.114L733.484 39.7H734.184L733.814 41.7H734.664V42.35H733.694L733.334 44.35H734.314V45H733.214L732.844 47H732.144L732.514 45H730.914L730.544 47H729.844ZM731.034 44.35H732.634L732.994 42.35H731.394L731.034 44.35ZM737.21 47V42.87H735.61V42.05H737.21V41.1C737.21 40.6667 737.346 40.3267 737.62 40.08C737.893 39.8267 738.27 39.7 738.75 39.7H740.36V40.52H738.75C738.543 40.52 738.383 40.57 738.27 40.67C738.163 40.7633 738.11 40.9067 738.11 41.1V42.05H740.36V42.87H738.11V47H737.21ZM744.006 47.1C743.559 47.1 743.169 47.0133 742.836 46.84C742.509 46.66 742.256 46.41 742.076 46.09C741.896 45.7633 741.806 45.3833 741.806 44.95V41.75C741.806 41.31 741.896 40.93 742.076 40.61C742.256 40.29 742.509 40.0433 742.836 39.87C743.169 39.69 743.559 39.6 744.006 39.6C744.459 39.6 744.849 39.69 745.176 39.87C745.503 40.0433 745.756 40.29 745.936 40.61C746.116 40.93 746.206 41.31 746.206 41.75V44.95C746.206 45.3833 746.116 45.7633 745.936 46.09C745.756 46.41 745.499 46.66 745.166 46.84C744.839 47.0133 744.453 47.1 744.006 47.1ZM744.006 46.33C744.406 46.33 744.726 46.2033 744.966 45.95C745.213 45.69 745.336 45.3567 745.336 44.95V41.75C745.336 41.3433 745.213 41.0133 744.966 40.76C744.726 40.5 744.406 40.37 744.006 40.37C743.606 40.37 743.283 40.5 743.036 40.76C742.796 41.0133 742.676 41.3433 742.676 41.75V44.95C742.676 45.3567 742.796 45.69 743.036 45.95C743.283 46.2033 743.606 46.33 744.006 46.33ZM744.006 43.94C743.826 43.94 743.679 43.8833 743.566 43.77C743.459 43.6567 743.406 43.5067 743.406 43.32C743.406 43.14 743.459 42.9967 743.566 42.89C743.679 42.7767 743.826 42.72 744.006 42.72C744.186 42.72 744.329 42.7767 744.436 42.89C744.549 42.9967 744.606 43.14 744.606 43.32C744.606 43.5067 744.549 43.6567 744.436 43.77C744.329 43.8833 744.186 43.94 744.006 43.94ZM749.202 47V42.87H747.602V42.05H749.202V41.1C749.202 40.6667 749.339 40.3267 749.612 40.08C749.885 39.8267 750.262 39.7 750.742 39.7H752.352V40.52H750.742C750.535 40.52 750.375 40.57 750.262 40.67C750.155 40.7633 750.102 40.9067 750.102 41.1V42.05H752.352V42.87H750.102V47H749.202ZM755.998 47.1C755.551 47.1 755.161 47.0133 754.828 46.84C754.501 46.66 754.248 46.41 754.068 46.09C753.888 45.7633 753.798 45.3833 753.798 44.95V41.75C753.798 41.31 753.888 40.93 754.068 40.61C754.248 40.29 754.501 40.0433 754.828 39.87C755.161 39.69 755.551 39.6 755.998 39.6C756.451 39.6 756.841 39.69 757.168 39.87C757.495 40.0433 757.748 40.29 757.928 40.61C758.108 40.93 758.198 41.31 758.198 41.75V44.95C758.198 45.3833 758.108 45.7633 757.928 46.09C757.748 46.41 757.491 46.66 757.158 46.84C756.831 47.0133 756.445 47.1 755.998 47.1ZM755.998 46.33C756.398 46.33 756.718 46.2033 756.958 45.95C757.205 45.69 757.328 45.3567 757.328 44.95V41.75C757.328 41.3433 757.205 41.0133 756.958 40.76C756.718 40.5 756.398 40.37 755.998 40.37C755.598 40.37 755.275 40.5 755.028 40.76C754.788 41.0133 754.668 41.3433 754.668 41.75V44.95C754.668 45.3567 754.788 45.69 755.028 45.95C755.275 46.2033 755.598 46.33 755.998 46.33ZM755.998 43.94C755.818 43.94 755.671 43.8833 755.558 43.77C755.451 43.6567 755.398 43.5067 755.398 43.32C755.398 43.14 755.451 42.9967 755.558 42.89C755.671 42.7767 755.818 42.72 755.998 42.72C756.178 42.72 756.321 42.7767 756.428 42.89C756.541 42.9967 756.598 43.14 756.598 43.32C756.598 43.5067 756.541 43.6567 756.428 43.77C756.321 43.8833 756.178 43.94 755.998 43.94ZM761.194 47V42.87H759.594V42.05H761.194V41.1C761.194 40.6667 761.331 40.3267 761.604 40.08C761.877 39.8267 762.254 39.7 762.734 39.7H764.344V40.52H762.734C762.527 40.52 762.367 40.57 762.254 40.67C762.147 40.7633 762.094 40.9067 762.094 41.1V42.05H764.344V42.87H762.094V47H761.194ZM767.99 47.1C767.544 47.1 767.154 47.0133 766.82 46.84C766.494 46.66 766.24 46.41 766.06 46.09C765.88 45.7633 765.79 45.3833 765.79 44.95V41.75C765.79 41.31 765.88 40.93 766.06 40.61C766.24 40.29 766.494 40.0433 766.82 39.87C767.154 39.69 767.544 39.6 767.99 39.6C768.444 39.6 768.834 39.69 769.16 39.87C769.487 40.0433 769.74 40.29 769.92 40.61C770.1 40.93 770.19 41.31 770.19 41.75V44.95C770.19 45.3833 770.1 45.7633 769.92 46.09C769.74 46.41 769.484 46.66 769.15 46.84C768.824 47.0133 768.437 47.1 767.99 47.1ZM767.99 46.33C768.39 46.33 768.71 46.2033 768.95 45.95C769.197 45.69 769.32 45.3567 769.32 44.95V41.75C769.32 41.3433 769.197 41.0133 768.95 40.76C768.71 40.5 768.39 40.37 767.99 40.37C767.59 40.37 767.267 40.5 767.02 40.76C766.78 41.0133 766.66 41.3433 766.66 41.75V44.95C766.66 45.3567 766.78 45.69 767.02 45.95C767.267 46.2033 767.59 46.33 767.99 46.33ZM767.99 43.94C767.81 43.94 767.664 43.8833 767.55 43.77C767.444 43.6567 767.39 43.5067 767.39 43.32C767.39 43.14 767.444 42.9967 767.55 42.89C767.664 42.7767 767.81 42.72 767.99 42.72C768.17 42.72 768.314 42.7767 768.42 42.89C768.534 42.9967 768.59 43.14 768.59 43.32C768.59 43.5067 768.534 43.6567 768.42 43.77C768.314 43.8833 768.17 43.94 767.99 43.94ZM717.941 60V52.7H718.841V54.5V55.55H719.031L718.841 55.76C718.841 55.3267 718.971 54.9933 719.231 54.76C719.491 54.52 719.851 54.4 720.311 54.4C720.865 54.4 721.305 54.57 721.631 54.91C721.958 55.25 722.121 55.7133 722.121 56.3V60H721.221V56.4C721.221 56.0067 721.115 55.7033 720.901 55.49C720.695 55.27 720.411 55.16 720.051 55.16C719.678 55.16 719.381 55.2767 719.161 55.51C718.948 55.7433 718.841 56.0733 718.841 56.5V60H717.941ZM725.848 60.08C725.474 60.08 725.148 60.0233 724.868 59.91C724.594 59.79 724.374 59.6233 724.208 59.41C724.048 59.1967 723.951 58.9433 723.918 58.65H724.818C724.858 58.8433 724.964 58.9967 725.138 59.11C725.318 59.2233 725.554 59.28 725.848 59.28H726.268C726.621 59.28 726.884 59.21 727.058 59.07C727.231 58.9233 727.318 58.73 727.318 58.49C727.318 58.2567 727.238 58.0733 727.078 57.94C726.924 57.8 726.694 57.7067 726.388 57.66L725.648 57.54C725.108 57.4467 724.704 57.28 724.438 57.04C724.178 56.7933 724.048 56.4367 724.048 55.97C724.048 55.4767 724.204 55.0967 724.518 54.83C724.831 54.5567 725.301 54.42 725.928 54.42H726.308C726.834 54.42 727.258 54.5433 727.578 54.79C727.898 55.0367 728.091 55.37 728.158 55.79H727.258C727.218 55.6167 727.118 55.48 726.958 55.38C726.798 55.2733 726.581 55.22 726.308 55.22H725.928C725.588 55.22 725.338 55.2833 725.178 55.41C725.024 55.5367 724.948 55.7267 724.948 55.98C724.948 56.2067 725.014 56.3733 725.148 56.48C725.281 56.5867 725.491 56.6633 725.778 56.71L726.518 56.83C727.111 56.9233 727.541 57.0967 727.808 57.35C728.081 57.6033 728.218 57.97 728.218 58.45C728.218 58.9567 728.054 59.3567 727.728 59.65C727.408 59.9367 726.921 60.08 726.268 60.08H725.848ZM732.334 60.1C731.88 60.1 731.517 59.98 731.244 59.74C730.97 59.4933 730.834 59.16 730.834 58.74L731.014 58.95H730.834V60H729.934V52.7H730.834V54.3L730.814 55.55H731.014L730.834 55.76C730.834 55.3467 730.97 55.0167 731.244 54.77C731.524 54.5233 731.887 54.4 732.334 54.4C732.887 54.4 733.33 54.5833 733.664 54.95C733.997 55.3167 734.164 55.8167 734.164 56.45V58.06C734.164 58.6867 733.997 59.1833 733.664 59.55C733.33 59.9167 732.887 60.1 732.334 60.1ZM732.034 59.32C732.414 59.32 732.714 59.2067 732.934 58.98C733.154 58.7533 733.264 58.4267 733.264 58V56.5C733.264 56.0733 733.154 55.7467 732.934 55.52C732.714 55.2933 732.414 55.18 732.034 55.18C731.667 55.18 731.374 55.2967 731.154 55.53C730.94 55.7633 730.834 56.0867 730.834 56.5V58C730.834 58.4133 730.94 58.7367 731.154 58.97C731.374 59.2033 731.667 59.32 732.034 59.32ZM739.86 61.2C738.913 60.9667 738.176 60.5067 737.65 59.82C737.123 59.1333 736.86 58.2933 736.86 57.3V55.5C736.86 54.8467 736.98 54.2567 737.22 53.73C737.466 53.1967 737.813 52.7467 738.26 52.38C738.713 52.0133 739.246 51.7533 739.86 51.6V52.45C739.433 52.55 739.063 52.7433 738.75 53.03C738.436 53.31 738.193 53.66 738.02 54.08C737.846 54.5 737.76 54.9733 737.76 55.5V57.3C737.76 57.8133 737.843 58.28 738.01 58.7C738.183 59.12 738.426 59.47 738.74 59.75C739.06 60.0233 739.433 60.21 739.86 60.31V61.2ZM744.006 60.1C743.559 60.1 743.169 60.0133 742.836 59.84C742.509 59.66 742.256 59.41 742.076 59.09C741.896 58.7633 741.806 58.3833 741.806 57.95V54.75C741.806 54.31 741.896 53.93 742.076 53.61C742.256 53.29 742.509 53.0433 742.836 52.87C743.169 52.69 743.559 52.6 744.006 52.6C744.459 52.6 744.849 52.69 745.176 52.87C745.503 53.0433 745.756 53.29 745.936 53.61C746.116 53.93 746.206 54.31 746.206 54.75V57.95C746.206 58.3833 746.116 58.7633 745.936 59.09C745.756 59.41 745.499 59.66 745.166 59.84C744.839 60.0133 744.453 60.1 744.006 60.1ZM744.006 59.33C744.406 59.33 744.726 59.2033 744.966 58.95C745.213 58.69 745.336 58.3567 745.336 57.95V54.75C745.336 54.3433 745.213 54.0133 744.966 53.76C744.726 53.5 744.406 53.37 744.006 53.37C743.606 53.37 743.283 53.5 743.036 53.76C742.796 54.0133 742.676 54.3433 742.676 54.75V57.95C742.676 58.3567 742.796 58.69 743.036 58.95C743.283 59.2033 743.606 59.33 744.006 59.33ZM744.006 56.94C743.826 56.94 743.679 56.8833 743.566 56.77C743.459 56.6567 743.406 56.5067 743.406 56.32C743.406 56.14 743.459 55.9967 743.566 55.89C743.679 55.7767 743.826 55.72 744.006 55.72C744.186 55.72 744.329 55.7767 744.436 55.89C744.549 55.9967 744.606 56.14 744.606 56.32C744.606 56.5067 744.549 56.6567 744.436 56.77C744.329 56.8833 744.186 56.94 744.006 56.94ZM748.652 61.6L749.452 58.49H750.752L749.452 61.6H748.652ZM755.998 60.1C755.551 60.1 755.161 60.0133 754.828 59.84C754.501 59.66 754.248 59.41 754.068 59.09C753.888 58.7633 753.798 58.3833 753.798 57.95V54.75C753.798 54.31 753.888 53.93 754.068 53.61C754.248 53.29 754.501 53.0433 754.828 52.87C755.161 52.69 755.551 52.6 755.998 52.6C756.451 52.6 756.841 52.69 757.168 52.87C757.495 53.0433 757.748 53.29 757.928 53.61C758.108 53.93 758.198 54.31 758.198 54.75V57.95C758.198 58.3833 758.108 58.7633 757.928 59.09C757.748 59.41 757.491 59.66 757.158 59.84C756.831 60.0133 756.445 60.1 755.998 60.1ZM755.998 59.33C756.398 59.33 756.718 59.2033 756.958 58.95C757.205 58.69 757.328 58.3567 757.328 57.95V54.75C757.328 54.3433 757.205 54.0133 756.958 53.76C756.718 53.5 756.398 53.37 755.998 53.37C755.598 53.37 755.275 53.5 755.028 53.76C754.788 54.0133 754.668 54.3433 754.668 54.75V57.95C754.668 58.3567 754.788 58.69 755.028 58.95C755.275 59.2033 755.598 59.33 755.998 59.33ZM755.998 56.94C755.818 56.94 755.671 56.8833 755.558 56.77C755.451 56.6567 755.398 56.5067 755.398 56.32C755.398 56.14 755.451 55.9967 755.558 55.89C755.671 55.7767 755.818 55.72 755.998 55.72C756.178 55.72 756.321 55.7767 756.428 55.89C756.541 55.9967 756.598 56.14 756.598 56.32C756.598 56.5067 756.541 56.6567 756.428 56.77C756.321 56.8833 756.178 56.94 755.998 56.94ZM760.644 61.6L761.444 58.49H762.744L761.444 61.6H760.644ZM766.86 60L768.93 56.68L768.89 56.65C768.764 56.8367 768.59 56.98 768.37 57.08C768.15 57.18 767.904 57.23 767.63 57.23C767.237 57.23 766.89 57.1367 766.59 56.95C766.297 56.7633 766.07 56.5 765.91 56.16C765.75 55.8133 765.67 55.41 765.67 54.95C765.67 54.4767 765.767 54.0667 765.96 53.72C766.154 53.3667 766.424 53.0933 766.77 52.9C767.117 52.7 767.52 52.6 767.98 52.6C768.447 52.6 768.854 52.7 769.2 52.9C769.554 53.0933 769.827 53.3667 770.02 53.72C770.214 54.0667 770.31 54.4767 770.31 54.95C770.31 55.3167 770.257 55.6767 770.15 56.03C770.05 56.3833 769.897 56.7233 769.69 57.05L767.86 60H766.86ZM767.99 56.5C768.417 56.5 768.76 56.36 769.02 56.08C769.28 55.7933 769.41 55.4167 769.41 54.95C769.41 54.4833 769.28 54.11 769.02 53.83C768.76 53.5433 768.417 53.4 767.99 53.4C767.564 53.4 767.22 53.5433 766.96 53.83C766.7 54.11 766.57 54.4833 766.57 54.95C766.57 55.4167 766.7 55.7933 766.96 56.08C767.22 56.36 767.564 56.5 767.99 56.5ZM775.086 60V58.4H771.786V56.99L774.676 52.7H775.656L772.686 57.18V57.58H775.086V55.8H775.986V60H775.086ZM778.132 61.2V60.31C778.566 60.21 778.939 60.0233 779.252 59.75C779.566 59.47 779.806 59.12 779.972 58.7C780.146 58.28 780.232 57.8133 780.232 57.3V55.5C780.232 54.9733 780.146 54.5 779.972 54.08C779.799 53.66 779.556 53.31 779.242 53.03C778.929 52.7433 778.559 52.55 778.132 52.45V51.6C778.752 51.7533 779.286 52.0133 779.732 52.38C780.179 52.7467 780.522 53.1967 780.762 53.73C781.009 54.2567 781.132 54.8467 781.132 55.5V57.3C781.132 58.2933 780.869 59.1333 780.342 59.82C779.816 60.5067 779.079 60.9667 778.132 61.2Z" fill="#0F0F0F"/>
</g>
<defs>
<clipPath id="clip0_41_13">
<rect width="800" height="100" fill="white"/>
</clipPath>
</defs>
</svg>
